<?xml version="1.0" encoding="UTF-8" standalone="no"?>
<!DOCTYPE svg PUBLIC "-//W3C//DTD SVG 1.1//EN"
 "http://www.w3.org/Graphics/SVG/1.1/DTD/svg11.dtd">
<!-- Generated by graphviz version 2.38.0 (20140413.2041)
 -->
<!-- Title: G Pages: 1 -->
<svg width="488pt" height="764pt"
 viewBox="0.00 0.00 488.09 764.00" xmlns="http://www.w3.org/2000/svg" xmlns:xlink="http://www.w3.org/1999/xlink">
<g id="graph0" class="graph" transform="scale(1 1) rotate(0) translate(4 760)">
<title>G</title>
<polygon fill="white" stroke="none" points="-4,4 -4,-760 484.095,-760 484.095,4 -4,4"/>
<!-- lock -->
<g id="node1" class="node"><title>lock</title>
<ellipse fill="none" stroke="black" cx="220" cy="-162" rx="27" ry="18"/>
<text text-anchor="middle" x="220" y="-158.3" font-family="Times New Roman,serif" font-size="14.00">lock</text>
</g>
<!-- CLUSTER_0 -->
<g id="node2" class="node"><title>CLUSTER_0</title>
<ellipse fill="none" stroke="black" cx="154" cy="-306" rx="61.1893" ry="18"/>
<text text-anchor="middle" x="154" y="-302.3" font-family="Times New Roman,serif" font-size="14.00">CLUSTER_0</text>
</g>
<!-- lock&#45;&gt;CLUSTER_0 -->
<g id="edge1" class="edge"><title>lock&#45;&gt;CLUSTER_0</title>
<path fill="none" stroke="green" d="M212.429,-179.289C201.112,-203.637 179.673,-249.764 166.149,-278.862"/>
<polygon fill="green" stroke="green" points="162.932,-277.478 161.891,-288.021 169.28,-280.428 162.932,-277.478"/>
</g>
<!-- key -->
<g id="node8" class="node"><title>key</title>
<ellipse fill="none" stroke="black" cx="275" cy="-234" rx="27" ry="18"/>
<text text-anchor="middle" x="275" y="-230.3" font-family="Times New Roman,serif" font-size="14.00">key</text>
</g>
<!-- lock&#45;&gt;key -->
<g id="edge16" class="edge"><title>lock&#45;&gt;key</title>
<path fill="none" stroke="blue" d="M227.194,-179.589C233.669,-189.159 243.061,-201.297 251.896,-211.583"/>
<polygon fill="blue" stroke="blue" points="249.538,-214.198 258.796,-219.35 254.771,-209.549 249.538,-214.198"/>
</g>
<!-- device -->
<g id="node15" class="node"><title>device</title>
<ellipse fill="none" stroke="black" cx="268" cy="-306" rx="34.394" ry="18"/>
<text text-anchor="middle" x="268" y="-302.3" font-family="Times New Roman,serif" font-size="14.00">device</text>
</g>
<!-- lock&#45;&gt;device -->
<g id="edge23" class="edge"><title>lock&#45;&gt;device</title>
<path fill="none" stroke="black" d="M222.152,-180.144C224.785,-198.377 230.036,-227.857 239,-252 242.485,-261.387 247.404,-271.144 252.203,-279.689"/>
<polygon fill="black" stroke="black" points="249.228,-281.536 257.289,-288.411 255.275,-278.009 249.228,-281.536"/>
</g>
<!-- physical_entity -->
<g id="node3" class="node"><title>physical_entity</title>
<ellipse fill="none" stroke="black" cx="68" cy="-666" rx="64.9885" ry="18"/>
<text text-anchor="middle" x="68" y="-662.3" font-family="Times New Roman,serif" font-size="14.00">physical_entity</text>
</g>
<!-- entity -->
<g id="node4" class="node"><title>entity</title>
<ellipse fill="none" stroke="black" cx="68" cy="-738" rx="30.5947" ry="18"/>
<text text-anchor="middle" x="68" y="-734.3" font-family="Times New Roman,serif" font-size="14.00">entity</text>
</g>
<!-- physical_entity&#45;&gt;entity -->
<g id="edge2" class="edge"><title>physical_entity&#45;&gt;entity</title>
<path fill="none" stroke="black" d="M68,-684.303C68,-692.017 68,-701.288 68,-709.888"/>
<polygon fill="black" stroke="black" points="64.5001,-709.896 68,-719.896 71.5001,-709.896 64.5001,-709.896"/>
</g>
<!-- instrumentality -->
<g id="node5" class="node"><title>instrumentality</title>
<ellipse fill="none" stroke="black" cx="165" cy="-378" rx="63.0888" ry="18"/>
<text text-anchor="middle" x="165" y="-374.3" font-family="Times New Roman,serif" font-size="14.00">instrumentality</text>
</g>
<!-- artifact -->
<g id="node6" class="node"><title>artifact</title>
<ellipse fill="none" stroke="black" cx="165" cy="-450" rx="35.9954" ry="18"/>
<text text-anchor="middle" x="165" y="-446.3" font-family="Times New Roman,serif" font-size="14.00">artifact</text>
</g>
<!-- instrumentality&#45;&gt;artifact -->
<g id="edge3" class="edge"><title>instrumentality&#45;&gt;artifact</title>
<path fill="none" stroke="black" d="M165,-396.303C165,-404.017 165,-413.288 165,-421.888"/>
<polygon fill="black" stroke="black" points="161.5,-421.896 165,-431.896 168.5,-421.896 161.5,-421.896"/>
</g>
<!-- whole -->
<g id="node12" class="node"><title>whole</title>
<ellipse fill="none" stroke="black" cx="99" cy="-522" rx="32.4942" ry="18"/>
<text text-anchor="middle" x="99" y="-518.3" font-family="Times New Roman,serif" font-size="14.00">whole</text>
</g>
<!-- artifact&#45;&gt;whole -->
<g id="edge7" class="edge"><title>artifact&#45;&gt;whole</title>
<path fill="none" stroke="black" d="M150.352,-466.535C141.637,-475.779 130.417,-487.679 120.689,-497.997"/>
<polygon fill="black" stroke="black" points="117.92,-495.831 113.607,-505.508 123.013,-500.633 117.92,-495.831"/>
</g>
<!-- gem -->
<g id="node7" class="node"><title>gem</title>
<ellipse fill="none" stroke="black" cx="330" cy="-162" rx="27" ry="18"/>
<text text-anchor="middle" x="330" y="-158.3" font-family="Times New Roman,serif" font-size="14.00">gem</text>
</g>
<!-- gem&#45;&gt;artifact -->
<g id="edge15" class="edge"><title>gem&#45;&gt;artifact</title>
<path fill="none" stroke="black" d="M331.58,-180.023C333.665,-210.586 334.658,-276.042 311,-324 286.675,-373.309 233.178,-410.928 198.139,-431.478"/>
<polygon fill="black" stroke="black" points="196.167,-428.574 189.222,-436.574 199.641,-434.651 196.167,-428.574"/>
</g>
<!-- gem&#45;&gt;key -->
<g id="edge4" class="edge"><title>gem&#45;&gt;key</title>
<path fill="none" stroke="blue" d="M318.066,-178.189C310.786,-187.454 301.337,-199.48 293.146,-209.906"/>
<polygon fill="blue" stroke="blue" points="290.337,-207.815 286.911,-217.841 295.841,-212.14 290.337,-207.815"/>
</g>
<!-- CLUSTER_1 -->
<g id="node16" class="node"><title>CLUSTER_1</title>
<ellipse fill="none" stroke="black" cx="419" cy="-234" rx="61.1893" ry="18"/>
<text text-anchor="middle" x="419" y="-230.3" font-family="Times New Roman,serif" font-size="14.00">CLUSTER_1</text>
</g>
<!-- gem&#45;&gt;CLUSTER_1 -->
<g id="edge20" class="edge"><title>gem&#45;&gt;CLUSTER_1</title>
<path fill="none" stroke="green" d="M346.74,-176.166C359.031,-185.834 376.027,-199.201 390.447,-210.543"/>
<polygon fill="green" stroke="green" points="388.561,-213.512 398.585,-216.943 392.889,-208.01 388.561,-213.512"/>
</g>
<!-- key&#45;&gt;lock -->
<g id="edge17" class="edge"><title>key&#45;&gt;lock</title>
<path fill="none" stroke="blue" d="M267.925,-216.588C261.362,-206.865 251.745,-194.445 242.755,-184.011"/>
<polygon fill="blue" stroke="blue" points="245.327,-181.637 236.063,-176.497 240.1,-186.292 245.327,-181.637"/>
</g>
<!-- key&#45;&gt;CLUSTER_0 -->
<g id="edge11" class="edge"><title>key&#45;&gt;CLUSTER_0</title>
<path fill="none" stroke="green" d="M255.29,-246.403C237.477,-256.708 210.833,-272.121 189.343,-284.554"/>
<polygon fill="green" stroke="green" points="187.392,-281.639 180.489,-289.676 190.897,-287.698 187.392,-281.639"/>
</g>
<!-- key&#45;&gt;device -->
<g id="edge14" class="edge"><title>key&#45;&gt;device</title>
<path fill="none" stroke="black" d="M273.27,-252.303C272.498,-260.017 271.571,-269.288 270.711,-277.888"/>
<polygon fill="black" stroke="black" points="267.223,-277.597 269.71,-287.896 274.188,-278.294 267.223,-277.597"/>
</g>
<!-- container -->
<g id="node9" class="node"><title>container</title>
<ellipse fill="none" stroke="black" cx="72" cy="-234" rx="44.393" ry="18"/>
<text text-anchor="middle" x="72" y="-230.3" font-family="Times New Roman,serif" font-size="14.00">container</text>
</g>
<!-- container&#45;&gt;instrumentality -->
<g id="edge5" class="edge"><title>container&#45;&gt;instrumentality</title>
<path fill="none" stroke="black" d="M70.2871,-252.149C69.2462,-271.186 70.1929,-302.109 84,-324 93.0577,-338.361 107.582,-349.641 121.847,-358.036"/>
<polygon fill="black" stroke="black" points="120.198,-361.124 130.645,-362.892 123.581,-354.995 120.198,-361.124"/>
</g>
<!-- player -->
<g id="node10" class="node"><title>player</title>
<ellipse fill="none" stroke="black" cx="144" cy="-18" rx="32.4942" ry="18"/>
<text text-anchor="middle" x="144" y="-14.3" font-family="Times New Roman,serif" font-size="14.00">player</text>
</g>
<!-- person -->
<g id="node11" class="node"><title>person</title>
<ellipse fill="none" stroke="black" cx="38" cy="-450" rx="35.9954" ry="18"/>
<text text-anchor="middle" x="38" y="-446.3" font-family="Times New Roman,serif" font-size="14.00">person</text>
</g>
<!-- player&#45;&gt;person -->
<g id="edge6" class="edge"><title>player&#45;&gt;person</title>
<path fill="none" stroke="black" d="M118.917,-29.7626C77.6602,-49.3517 0,-94.9919 0,-161 0,-161 0,-161 0,-307 0,-348.594 15.4027,-394.783 26.5955,-422.857"/>
<polygon fill="black" stroke="black" points="23.4536,-424.419 30.4924,-432.338 29.9281,-421.758 23.4536,-424.419"/>
</g>
<!-- box -->
<g id="node14" class="node"><title>box</title>
<ellipse fill="none" stroke="black" cx="144" cy="-90" rx="27" ry="18"/>
<text text-anchor="middle" x="144" y="-86.3" font-family="Times New Roman,serif" font-size="14.00">box</text>
</g>
<!-- player&#45;&gt;box -->
<g id="edge13" class="edge"><title>player&#45;&gt;box</title>
<path fill="none" stroke="blue" d="M144,-36.3034C144,-44.0173 144,-53.2875 144,-61.8876"/>
<polygon fill="blue" stroke="blue" points="140.5,-61.8956 144,-71.8957 147.5,-61.8957 140.5,-61.8956"/>
</g>
<!-- player&#45;&gt;CLUSTER_1 -->
<g id="edge19" class="edge"><title>player&#45;&gt;CLUSTER_1</title>
<path fill="none" stroke="green" d="M170.43,-28.6175C215.148,-45.9451 306.649,-86.0736 366,-144 384.302,-161.863 398.626,-187.345 407.743,-206.468"/>
<polygon fill="green" stroke="green" points="404.679,-208.184 412.03,-215.815 411.042,-205.266 404.679,-208.184"/>
</g>
<!-- person&#45;&gt;physical_entity -->
<g id="edge10" class="edge"><title>person&#45;&gt;physical_entity</title>
<path fill="none" stroke="black" d="M39.5135,-467.989C42.2454,-497.425 48.5148,-559.772 57,-612 58.3775,-620.479 60.1737,-629.66 61.9139,-637.96"/>
<polygon fill="black" stroke="black" points="58.5245,-638.846 64.0526,-647.885 65.3674,-637.372 58.5245,-638.846"/>
</g>
<!-- person&#45;&gt;whole -->
<g id="edge21" class="edge"><title>person&#45;&gt;whole</title>
<path fill="none" stroke="black" d="M51.8418,-466.884C59.7191,-475.924 69.7348,-487.417 78.508,-497.485"/>
<polygon fill="black" stroke="black" points="76.0044,-499.939 85.2129,-505.179 81.2818,-495.34 76.0044,-499.939"/>
</g>
<!-- object -->
<g id="node13" class="node"><title>object</title>
<ellipse fill="none" stroke="black" cx="99" cy="-594" rx="33.2948" ry="18"/>
<text text-anchor="middle" x="99" y="-590.3" font-family="Times New Roman,serif" font-size="14.00">object</text>
</g>
<!-- whole&#45;&gt;object -->
<g id="edge8" class="edge"><title>whole&#45;&gt;object</title>
<path fill="none" stroke="black" d="M99,-540.303C99,-548.017 99,-557.288 99,-565.888"/>
<polygon fill="black" stroke="black" points="95.5001,-565.896 99,-575.896 102.5,-565.896 95.5001,-565.896"/>
</g>
<!-- object&#45;&gt;physical_entity -->
<g id="edge22" class="edge"><title>object&#45;&gt;physical_entity</title>
<path fill="none" stroke="black" d="M91.6534,-611.589C88.077,-619.665 83.691,-629.569 79.6714,-638.645"/>
<polygon fill="black" stroke="black" points="76.3583,-637.483 75.5092,-648.044 82.7587,-640.318 76.3583,-637.483"/>
</g>
<!-- box&#45;&gt;lock -->
<g id="edge18" class="edge"><title>box&#45;&gt;lock</title>
<path fill="none" stroke="blue" d="M159.38,-105.166C170.196,-115.128 184.857,-128.631 197.051,-139.863"/>
<polygon fill="blue" stroke="blue" points="194.916,-142.655 204.643,-146.856 199.659,-137.506 194.916,-142.655"/>
</g>
<!-- box&#45;&gt;CLUSTER_0 -->
<g id="edge9" class="edge"><title>box&#45;&gt;CLUSTER_0</title>
<path fill="none" stroke="green" d="M144.801,-108.151C146.531,-145.168 150.627,-232.819 152.72,-277.614"/>
<polygon fill="green" stroke="green" points="149.232,-277.942 153.195,-287.768 156.224,-277.615 149.232,-277.942"/>
</g>
<!-- box&#45;&gt;container -->
<g id="edge12" class="edge"><title>box&#45;&gt;container</title>
<path fill="none" stroke="black" d="M135.741,-107.289C123.395,-131.637 100.007,-177.764 85.253,-206.862"/>
<polygon fill="black" stroke="black" points="82.0096,-205.519 80.6089,-216.021 88.2529,-208.685 82.0096,-205.519"/>
</g>
<!-- device&#45;&gt;instrumentality -->
<g id="edge24" class="edge"><title>device&#45;&gt;instrumentality</title>
<path fill="none" stroke="black" d="M247.651,-320.83C233.072,-330.737 213.16,-344.27 196.533,-355.57"/>
<polygon fill="black" stroke="black" points="194.487,-352.729 188.183,-361.244 198.422,-358.518 194.487,-352.729"/>
</g>
</g>
</svg>
