<?xml version="1.0" encoding="UTF-8" standalone="no"?>
<!DOCTYPE svg PUBLIC "-//W3C//DTD SVG 1.1//EN"
 "http://www.w3.org/Graphics/SVG/1.1/DTD/svg11.dtd">
<!-- Generated by graphviz version 2.38.0 (20140413.2041)
 -->
<!-- Title: G Pages: 1 -->
<svg width="581pt" height="836pt"
 viewBox="0.00 0.00 581.29 836.00" xmlns="http://www.w3.org/2000/svg" xmlns:xlink="http://www.w3.org/1999/xlink">
<g id="graph0" class="graph" transform="scale(1 1) rotate(0) translate(4 832)">
<title>G</title>
<polygon fill="white" stroke="none" points="-4,4 -4,-832 577.29,-832 577.29,4 -4,4"/>
<!-- lock -->
<g id="node1" class="node"><title>lock</title>
<ellipse fill="none" stroke="black" cx="250.195" cy="-666" rx="27" ry="18"/>
<text text-anchor="middle" x="250.195" y="-662.3" font-family="Times New Roman,serif" font-size="14.00">lock</text>
</g>
<!-- CLUSTER_0 -->
<g id="node2" class="node"><title>CLUSTER_0</title>
<ellipse fill="none" stroke="black" cx="181.195" cy="-522" rx="61.1893" ry="18"/>
<text text-anchor="middle" x="181.195" y="-518.3" font-family="Times New Roman,serif" font-size="14.00">CLUSTER_0</text>
</g>
<!-- lock&#45;&gt;CLUSTER_0 -->
<g id="edge1" class="edge"><title>lock&#45;&gt;CLUSTER_0</title>
<path fill="none" stroke="green" d="M234.081,-651.265C223.49,-641.382 210.164,-627.165 202.195,-612 192.071,-592.734 186.768,-568.578 184.025,-550.296"/>
<polygon fill="green" stroke="green" points="187.482,-549.741 182.69,-540.292 180.544,-550.667 187.482,-549.741"/>
</g>
<!-- key -->
<g id="node12" class="node"><title>key</title>
<ellipse fill="none" stroke="black" cx="334.195" cy="-594" rx="27" ry="18"/>
<text text-anchor="middle" x="334.195" y="-590.3" font-family="Times New Roman,serif" font-size="14.00">key</text>
</g>
<!-- lock&#45;&gt;key -->
<g id="edge17" class="edge"><title>lock&#45;&gt;key</title>
<path fill="none" stroke="blue" d="M262.743,-649.811C274.413,-638.988 291.822,-624.395 306.624,-612.989"/>
<polygon fill="blue" stroke="blue" points="309.097,-615.508 314.975,-606.693 304.883,-609.918 309.097,-615.508"/>
</g>
<!-- fastener -->
<g id="node21" class="node"><title>fastener</title>
<ellipse fill="none" stroke="black" cx="250.195" cy="-594" rx="38.9931" ry="18"/>
<text text-anchor="middle" x="250.195" y="-590.3" font-family="Times New Roman,serif" font-size="14.00">fastener</text>
</g>
<!-- lock&#45;&gt;fastener -->
<g id="edge31" class="edge"><title>lock&#45;&gt;fastener</title>
<path fill="none" stroke="black" d="M250.195,-647.697C250.195,-639.983 250.195,-630.712 250.195,-622.112"/>
<polygon fill="black" stroke="black" points="253.695,-622.104 250.195,-612.104 246.695,-622.104 253.695,-622.104"/>
</g>
<!-- physical_entity -->
<g id="node3" class="node"><title>physical_entity</title>
<ellipse fill="none" stroke="black" cx="116.195" cy="-90" rx="64.9885" ry="18"/>
<text text-anchor="middle" x="116.195" y="-86.3" font-family="Times New Roman,serif" font-size="14.00">physical_entity</text>
</g>
<!-- entity -->
<g id="node7" class="node"><title>entity</title>
<ellipse fill="none" stroke="black" cx="116.195" cy="-18" rx="30.5947" ry="18"/>
<text text-anchor="middle" x="116.195" y="-14.3" font-family="Times New Roman,serif" font-size="14.00">entity</text>
</g>
<!-- physical_entity&#45;&gt;entity -->
<g id="edge3" class="edge"><title>physical_entity&#45;&gt;entity</title>
<path fill="none" stroke="black" d="M116.195,-71.6966C116.195,-63.9827 116.195,-54.7125 116.195,-46.1124"/>
<polygon fill="black" stroke="black" points="119.695,-46.1043 116.195,-36.1043 112.695,-46.1044 119.695,-46.1043"/>
</g>
<!-- creation -->
<g id="node4" class="node"><title>creation</title>
<ellipse fill="none" stroke="black" cx="389.195" cy="-378" rx="39.7935" ry="18"/>
<text text-anchor="middle" x="389.195" y="-374.3" font-family="Times New Roman,serif" font-size="14.00">creation</text>
</g>
<!-- artifact -->
<g id="node5" class="node"><title>artifact</title>
<ellipse fill="none" stroke="black" cx="266.195" cy="-306" rx="35.9954" ry="18"/>
<text text-anchor="middle" x="266.195" y="-302.3" font-family="Times New Roman,serif" font-size="14.00">artifact</text>
</g>
<!-- creation&#45;&gt;artifact -->
<g id="edge2" class="edge"><title>creation&#45;&gt;artifact</title>
<path fill="none" stroke="black" d="M365.479,-363.503C346.263,-352.567 319.012,-337.058 297.919,-325.055"/>
<polygon fill="black" stroke="black" points="299.428,-321.886 289.006,-319.982 295.966,-327.97 299.428,-321.886"/>
</g>
<!-- whole -->
<g id="node17" class="node"><title>whole</title>
<ellipse fill="none" stroke="black" cx="165.195" cy="-234" rx="32.4942" ry="18"/>
<text text-anchor="middle" x="165.195" y="-230.3" font-family="Times New Roman,serif" font-size="14.00">whole</text>
</g>
<!-- artifact&#45;&gt;whole -->
<g id="edge8" class="edge"><title>artifact&#45;&gt;whole</title>
<path fill="none" stroke="black" d="M245.756,-290.834C230.638,-280.356 209.868,-265.962 193.204,-254.412"/>
<polygon fill="black" stroke="black" points="195.129,-251.488 184.916,-248.668 191.141,-257.241 195.129,-251.488"/>
</g>
<!-- art -->
<g id="node6" class="node"><title>art</title>
<ellipse fill="none" stroke="black" cx="406.195" cy="-594" rx="27" ry="18"/>
<text text-anchor="middle" x="406.195" y="-590.3" font-family="Times New Roman,serif" font-size="14.00">art</text>
</g>
<!-- art&#45;&gt;creation -->
<g id="edge23" class="edge"><title>art&#45;&gt;creation</title>
<path fill="none" stroke="black" d="M404.832,-575.849C401.892,-538.832 394.929,-451.181 391.37,-406.386"/>
<polygon fill="black" stroke="black" points="394.845,-405.924 390.564,-396.232 387.867,-406.478 394.845,-405.924"/>
</g>
<!-- contestant -->
<g id="node8" class="node"><title>contestant</title>
<ellipse fill="none" stroke="black" cx="54.1949" cy="-738" rx="48.1917" ry="18"/>
<text text-anchor="middle" x="54.1949" y="-734.3" font-family="Times New Roman,serif" font-size="14.00">contestant</text>
</g>
<!-- person -->
<g id="node13" class="node"><title>person</title>
<ellipse fill="none" stroke="black" cx="57.1949" cy="-450" rx="35.9954" ry="18"/>
<text text-anchor="middle" x="57.1949" y="-446.3" font-family="Times New Roman,serif" font-size="14.00">person</text>
</g>
<!-- contestant&#45;&gt;person -->
<g id="edge26" class="edge"><title>contestant&#45;&gt;person</title>
<path fill="none" stroke="black" d="M54.3736,-719.966C54.8737,-672.291 56.2909,-537.185 56.9051,-478.63"/>
<polygon fill="black" stroke="black" points="60.4082,-478.343 57.0134,-468.306 53.4086,-478.269 60.4082,-478.343"/>
</g>
<!-- instrumentality -->
<g id="node9" class="node"><title>instrumentality</title>
<ellipse fill="none" stroke="black" cx="266.195" cy="-378" rx="63.0888" ry="18"/>
<text text-anchor="middle" x="266.195" y="-374.3" font-family="Times New Roman,serif" font-size="14.00">instrumentality</text>
</g>
<!-- instrumentality&#45;&gt;artifact -->
<g id="edge4" class="edge"><title>instrumentality&#45;&gt;artifact</title>
<path fill="none" stroke="black" d="M266.195,-359.697C266.195,-351.983 266.195,-342.712 266.195,-334.112"/>
<polygon fill="black" stroke="black" points="269.695,-334.104 266.195,-324.104 262.695,-334.104 269.695,-334.104"/>
</g>
<!-- living_thing -->
<g id="node10" class="node"><title>living_thing</title>
<ellipse fill="none" stroke="black" cx="149.195" cy="-306" rx="51.9908" ry="18"/>
<text text-anchor="middle" x="149.195" y="-302.3" font-family="Times New Roman,serif" font-size="14.00">living_thing</text>
</g>
<!-- living_thing&#45;&gt;whole -->
<g id="edge28" class="edge"><title>living_thing&#45;&gt;whole</title>
<path fill="none" stroke="black" d="M153.15,-287.697C154.913,-279.983 157.032,-270.712 158.998,-262.112"/>
<polygon fill="black" stroke="black" points="162.469,-262.633 161.285,-252.104 155.645,-261.073 162.469,-262.633"/>
</g>
<!-- gem -->
<g id="node11" class="node"><title>gem</title>
<ellipse fill="none" stroke="black" cx="406.195" cy="-666" rx="27" ry="18"/>
<text text-anchor="middle" x="406.195" y="-662.3" font-family="Times New Roman,serif" font-size="14.00">gem</text>
</g>
<!-- gem&#45;&gt;art -->
<g id="edge21" class="edge"><title>gem&#45;&gt;art</title>
<path fill="none" stroke="black" d="M406.195,-647.697C406.195,-639.983 406.195,-630.712 406.195,-622.112"/>
<polygon fill="black" stroke="black" points="409.695,-622.104 406.195,-612.104 402.695,-622.104 409.695,-622.104"/>
</g>
<!-- gem&#45;&gt;key -->
<g id="edge5" class="edge"><title>gem&#45;&gt;key</title>
<path fill="none" stroke="blue" d="M391.625,-650.834C381.445,-640.938 367.671,-627.546 356.164,-616.359"/>
<polygon fill="blue" stroke="blue" points="358.6,-613.846 348.991,-609.385 353.721,-618.865 358.6,-613.846"/>
</g>
<!-- CLUSTER_1 -->
<g id="node24" class="node"><title>CLUSTER_1</title>
<ellipse fill="none" stroke="black" cx="512.195" cy="-594" rx="61.1893" ry="18"/>
<text text-anchor="middle" x="512.195" y="-590.3" font-family="Times New Roman,serif" font-size="14.00">CLUSTER_1</text>
</g>
<!-- gem&#45;&gt;CLUSTER_1 -->
<g id="edge25" class="edge"><title>gem&#45;&gt;CLUSTER_1</title>
<path fill="none" stroke="green" d="M424.659,-652.807C439.849,-642.776 461.744,-628.317 479.835,-616.37"/>
<polygon fill="green" stroke="green" points="481.949,-619.168 488.365,-610.737 478.092,-613.327 481.949,-619.168"/>
</g>
<!-- key&#45;&gt;lock -->
<g id="edge18" class="edge"><title>key&#45;&gt;lock</title>
<path fill="none" stroke="blue" d="M321.728,-610.114C310.121,-620.885 292.793,-635.418 278.009,-646.824"/>
<polygon fill="blue" stroke="blue" points="275.534,-644.307 269.661,-653.125 279.751,-649.894 275.534,-644.307"/>
</g>
<!-- key&#45;&gt;CLUSTER_0 -->
<g id="edge11" class="edge"><title>key&#45;&gt;CLUSTER_0</title>
<path fill="none" stroke="green" d="M312.901,-582.876C308.072,-580.6 302.963,-578.205 298.195,-576 273.225,-564.45 245.148,-551.723 222.759,-541.636"/>
<polygon fill="green" stroke="green" points="224.093,-538.398 213.537,-537.485 221.22,-544.781 224.093,-538.398"/>
</g>
<!-- device -->
<g id="node22" class="node"><title>device</title>
<ellipse fill="none" stroke="black" cx="300.195" cy="-450" rx="34.394" ry="18"/>
<text text-anchor="middle" x="300.195" y="-446.3" font-family="Times New Roman,serif" font-size="14.00">device</text>
</g>
<!-- key&#45;&gt;device -->
<g id="edge16" class="edge"><title>key&#45;&gt;device</title>
<path fill="none" stroke="black" d="M341.969,-576.715C349.554,-558.453 358.676,-528.222 349.195,-504 344.484,-491.966 335.618,-481.027 326.707,-472.253"/>
<polygon fill="black" stroke="black" points="329.024,-469.629 319.303,-465.416 324.276,-474.772 329.024,-469.629"/>
</g>
<!-- causal_agent -->
<g id="node14" class="node"><title>causal_agent</title>
<ellipse fill="none" stroke="black" cx="57.1949" cy="-234" rx="57.3905" ry="18"/>
<text text-anchor="middle" x="57.1949" y="-230.3" font-family="Times New Roman,serif" font-size="14.00">causal_agent</text>
</g>
<!-- person&#45;&gt;causal_agent -->
<g id="edge12" class="edge"><title>person&#45;&gt;causal_agent</title>
<path fill="none" stroke="black" d="M57.1949,-431.849C57.1949,-394.832 57.1949,-307.181 57.1949,-262.386"/>
<polygon fill="black" stroke="black" points="60.695,-262.232 57.1949,-252.232 53.695,-262.232 60.695,-262.232"/>
</g>
<!-- organism -->
<g id="node23" class="node"><title>organism</title>
<ellipse fill="none" stroke="black" cx="137.195" cy="-378" rx="44.393" ry="18"/>
<text text-anchor="middle" x="137.195" y="-374.3" font-family="Times New Roman,serif" font-size="14.00">organism</text>
</g>
<!-- person&#45;&gt;organism -->
<g id="edge27" class="edge"><title>person&#45;&gt;organism</title>
<path fill="none" stroke="black" d="M74.1609,-434.155C85.0719,-424.608 99.4516,-412.025 111.721,-401.29"/>
<polygon fill="black" stroke="black" points="114.201,-403.771 119.422,-394.552 109.591,-398.503 114.201,-403.771"/>
</g>
<!-- causal_agent&#45;&gt;physical_entity -->
<g id="edge6" class="edge"><title>causal_agent&#45;&gt;physical_entity</title>
<path fill="none" stroke="black" d="M64.3117,-215.871C74.4557,-191.457 93.1659,-146.426 105.128,-117.635"/>
<polygon fill="black" stroke="black" points="108.448,-118.767 109.053,-108.189 101.984,-116.081 108.448,-118.767"/>
</g>
<!-- restraint -->
<g id="node15" class="node"><title>restraint</title>
<ellipse fill="none" stroke="black" cx="300.195" cy="-522" rx="39.7935" ry="18"/>
<text text-anchor="middle" x="300.195" y="-518.3" font-family="Times New Roman,serif" font-size="14.00">restraint</text>
</g>
<!-- restraint&#45;&gt;device -->
<g id="edge14" class="edge"><title>restraint&#45;&gt;device</title>
<path fill="none" stroke="black" d="M300.195,-503.697C300.195,-495.983 300.195,-486.712 300.195,-478.112"/>
<polygon fill="black" stroke="black" points="303.695,-478.104 300.195,-468.104 296.695,-478.104 303.695,-478.104"/>
</g>
<!-- container -->
<g id="node16" class="node"><title>container</title>
<ellipse fill="none" stroke="black" cx="195.195" cy="-450" rx="44.393" ry="18"/>
<text text-anchor="middle" x="195.195" y="-446.3" font-family="Times New Roman,serif" font-size="14.00">container</text>
</g>
<!-- container&#45;&gt;instrumentality -->
<g id="edge7" class="edge"><title>container&#45;&gt;instrumentality</title>
<path fill="none" stroke="black" d="M211.306,-433.116C220.304,-424.244 231.701,-413.009 241.774,-403.077"/>
<polygon fill="black" stroke="black" points="244.494,-405.31 249.158,-395.797 239.579,-400.326 244.494,-405.31"/>
</g>
<!-- object -->
<g id="node18" class="node"><title>object</title>
<ellipse fill="none" stroke="black" cx="153.195" cy="-162" rx="33.2948" ry="18"/>
<text text-anchor="middle" x="153.195" y="-158.3" font-family="Times New Roman,serif" font-size="14.00">object</text>
</g>
<!-- whole&#45;&gt;object -->
<g id="edge9" class="edge"><title>whole&#45;&gt;object</title>
<path fill="none" stroke="black" d="M162.29,-216.055C160.968,-208.346 159.371,-199.027 157.886,-190.364"/>
<polygon fill="black" stroke="black" points="161.296,-189.54 156.156,-180.275 154.396,-190.723 161.296,-189.54"/>
</g>
<!-- object&#45;&gt;physical_entity -->
<g id="edge29" class="edge"><title>object&#45;&gt;physical_entity</title>
<path fill="none" stroke="black" d="M144.426,-144.411C140.112,-136.249 134.811,-126.22 129.972,-117.065"/>
<polygon fill="black" stroke="black" points="132.925,-115.162 125.157,-107.956 126.736,-118.433 132.925,-115.162"/>
</g>
<!-- player -->
<g id="node19" class="node"><title>player</title>
<ellipse fill="none" stroke="black" cx="147.195" cy="-810" rx="32.4942" ry="18"/>
<text text-anchor="middle" x="147.195" y="-806.3" font-family="Times New Roman,serif" font-size="14.00">player</text>
</g>
<!-- player&#45;&gt;contestant -->
<g id="edge30" class="edge"><title>player&#45;&gt;contestant</title>
<path fill="none" stroke="black" d="M128.375,-794.834C115.331,-785.016 97.7174,-771.759 82.9269,-760.626"/>
<polygon fill="black" stroke="black" points="84.6951,-757.576 74.6006,-754.359 80.4855,-763.169 84.6951,-757.576"/>
</g>
<!-- box -->
<g id="node20" class="node"><title>box</title>
<ellipse fill="none" stroke="black" cx="147.195" cy="-738" rx="27" ry="18"/>
<text text-anchor="middle" x="147.195" y="-734.3" font-family="Times New Roman,serif" font-size="14.00">box</text>
</g>
<!-- player&#45;&gt;box -->
<g id="edge15" class="edge"><title>player&#45;&gt;box</title>
<path fill="none" stroke="blue" d="M147.195,-791.697C147.195,-783.983 147.195,-774.712 147.195,-766.112"/>
<polygon fill="blue" stroke="blue" points="150.695,-766.104 147.195,-756.104 143.695,-766.104 150.695,-766.104"/>
</g>
<!-- player&#45;&gt;CLUSTER_1 -->
<g id="edge24" class="edge"><title>player&#45;&gt;CLUSTER_1</title>
<path fill="none" stroke="green" d="M176.502,-801.859C232.543,-787.131 356.9,-749.187 442.195,-684 464.982,-666.585 484.531,-640.114 497.132,-620.564"/>
<polygon fill="green" stroke="green" points="500.242,-622.194 502.582,-611.861 494.309,-618.479 500.242,-622.194"/>
</g>
<!-- box&#45;&gt;lock -->
<g id="edge20" class="edge"><title>box&#45;&gt;lock</title>
<path fill="none" stroke="blue" d="M165.609,-724.485C181.721,-713.536 205.324,-697.495 223.506,-685.138"/>
<polygon fill="blue" stroke="blue" points="225.637,-687.922 231.94,-679.406 221.702,-682.132 225.637,-687.922"/>
</g>
<!-- box&#45;&gt;CLUSTER_0 -->
<g id="edge10" class="edge"><title>box&#45;&gt;CLUSTER_0</title>
<path fill="none" stroke="green" d="M149.92,-719.849C155.801,-682.832 169.727,-595.181 176.844,-550.386"/>
<polygon fill="green" stroke="green" points="180.345,-550.658 178.457,-540.232 173.431,-549.559 180.345,-550.658"/>
</g>
<!-- box&#45;&gt;container -->
<g id="edge13" class="edge"><title>box&#45;&gt;container</title>
<path fill="none" stroke="black" d="M138.199,-720.824C117.445,-681.15 70.9716,-576.94 111.195,-504 120.314,-487.465 137.001,-475.378 153.114,-466.959"/>
<polygon fill="black" stroke="black" points="155.003,-469.933 162.473,-462.42 151.948,-463.635 155.003,-469.933"/>
</g>
<!-- fastener&#45;&gt;restraint -->
<g id="edge19" class="edge"><title>fastener&#45;&gt;restraint</title>
<path fill="none" stroke="black" d="M261.792,-576.765C267.888,-568.23 275.493,-557.582 282.324,-548.019"/>
<polygon fill="black" stroke="black" points="285.35,-549.805 288.314,-539.633 279.653,-545.736 285.35,-549.805"/>
</g>
<!-- device&#45;&gt;instrumentality -->
<g id="edge32" class="edge"><title>device&#45;&gt;instrumentality</title>
<path fill="none" stroke="black" d="M292.137,-432.411C288.173,-424.249 283.302,-414.22 278.855,-405.065"/>
<polygon fill="black" stroke="black" points="281.948,-403.422 274.431,-395.956 275.652,-406.48 281.948,-403.422"/>
</g>
<!-- organism&#45;&gt;living_thing -->
<g id="edge22" class="edge"><title>organism&#45;&gt;living_thing</title>
<path fill="none" stroke="black" d="M140.161,-359.697C141.484,-351.983 143.073,-342.712 144.547,-334.112"/>
<polygon fill="black" stroke="black" points="148.023,-334.552 146.263,-324.104 141.123,-333.369 148.023,-334.552"/>
</g>
</g>
</svg>
