<?xml version="1.0" encoding="UTF-8" standalone="no"?>
<!DOCTYPE svg PUBLIC "-//W3C//DTD SVG 1.1//EN"
 "http://www.w3.org/Graphics/SVG/1.1/DTD/svg11.dtd">
<!-- Generated by graphviz version 2.38.0 (20140413.2041)
 -->
<!-- Title: G Pages: 1 -->
<svg width="1616pt" height="1196pt"
 viewBox="0.00 0.00 1616.14 1196.00" xmlns="http://www.w3.org/2000/svg" xmlns:xlink="http://www.w3.org/1999/xlink">
<g id="graph0" class="graph" transform="scale(1 1) rotate(0) translate(4 1192)">
<title>G</title>
<polygon fill="white" stroke="none" points="-4,4 -4,-1192 1612.14,-1192 1612.14,4 -4,4"/>
<!-- factory -->
<g id="node1" class="node"><title>factory</title>
<ellipse fill="none" stroke="black" cx="1226.14" cy="-18" rx="36.2938" ry="18"/>
<text text-anchor="middle" x="1226.14" y="-14.3" font-family="Times New Roman,serif" font-size="14.00">factory</text>
</g>
<!-- worker -->
<g id="node2" class="node"><title>worker</title>
<ellipse fill="none" stroke="black" cx="1299.14" cy="-90" rx="36.2938" ry="18"/>
<text text-anchor="middle" x="1299.14" y="-86.3" font-family="Times New Roman,serif" font-size="14.00">worker</text>
</g>
<!-- factory&#45;&gt;worker -->
<g id="edge1" class="edge"><title>factory&#45;&gt;worker</title>
<path fill="none" stroke="blue" d="M1237.27,-35.2354C1246.46,-45.1084 1259.57,-57.8097 1271.43,-68.3879"/>
<polygon fill="blue" stroke="blue" points="1269.16,-71.0479 1279,-74.9817 1273.76,-65.7717 1269.16,-71.0479"/>
</g>
<!-- workbench -->
<g id="node3" class="node"><title>workbench</title>
<ellipse fill="none" stroke="black" cx="797.144" cy="-666" rx="51.1914" ry="18"/>
<text text-anchor="middle" x="797.144" y="-662.3" font-family="Times New Roman,serif" font-size="14.00">workbench</text>
</g>
<!-- factory&#45;&gt;workbench -->
<g id="edge74" class="edge"><title>factory&#45;&gt;workbench</title>
<path fill="none" stroke="blue" d="M1191.25,-23.1231C1095.35,-35.9248 832.473,-78.1279 782.144,-144 664.987,-297.336 747.253,-556.906 783.142,-639.18"/>
<polygon fill="blue" stroke="blue" points="779.963,-640.645 787.272,-648.315 786.341,-637.761 779.963,-640.645"/>
</g>
<!-- CLUSTER_1 -->
<g id="node10" class="node"><title>CLUSTER_1</title>
<ellipse fill="none" stroke="black" cx="718.144" cy="-810" rx="61.1893" ry="18"/>
<text text-anchor="middle" x="718.144" y="-806.3" font-family="Times New Roman,serif" font-size="14.00">CLUSTER_1</text>
</g>
<!-- factory&#45;&gt;CLUSTER_1 -->
<g id="edge6" class="edge"><title>factory&#45;&gt;CLUSTER_1</title>
<path fill="none" stroke="green" d="M1260.39,-24.127C1288.23,-30.2943 1325.78,-43.6239 1344.14,-72 1494.73,-304.709 1364.47,-444.969 1224.14,-684 1203.89,-718.495 1204.82,-736.055 1170.14,-756 1106.88,-792.389 899.555,-803.859 789.021,-807.425"/>
<polygon fill="green" stroke="green" points="788.847,-803.928 778.96,-807.736 789.063,-810.925 788.847,-803.928"/>
</g>
<!-- fabric -->
<g id="node11" class="node"><title>fabric</title>
<ellipse fill="none" stroke="black" cx="1220.14" cy="-450" rx="31.6951" ry="18"/>
<text text-anchor="middle" x="1220.14" y="-446.3" font-family="Times New Roman,serif" font-size="14.00">fabric</text>
</g>
<!-- factory&#45;&gt;fabric -->
<g id="edge77" class="edge"><title>factory&#45;&gt;fabric</title>
<path fill="none" stroke="blue" d="M1220.43,-36.0493C1217.14,-62.7084 1217.14,-115.885 1217.14,-161 1217.14,-161 1217.14,-161 1217.14,-307 1217.14,-347.04 1214.73,-393.373 1215.26,-421.935"/>
<polygon fill="blue" stroke="blue" points="1211.76,-422.091 1215.62,-431.961 1218.76,-421.842 1211.76,-422.091"/>
</g>
<!-- plant -->
<g id="node36" class="node"><title>plant</title>
<ellipse fill="none" stroke="black" cx="1084.14" cy="-306" rx="28.6953" ry="18"/>
<text text-anchor="middle" x="1084.14" y="-302.3" font-family="Times New Roman,serif" font-size="14.00">plant</text>
</g>
<!-- factory&#45;&gt;plant -->
<g id="edge86" class="edge"><title>factory&#45;&gt;plant</title>
<path fill="none" stroke="black" d="M1217.9,-35.6128C1194.11,-83.5094 1125.3,-222.108 1096.77,-279.572"/>
<polygon fill="black" stroke="black" points="1093.55,-278.185 1092.24,-288.698 1099.82,-281.297 1093.55,-278.185"/>
</g>
<!-- worker&#45;&gt;factory -->
<g id="edge55" class="edge"><title>worker&#45;&gt;factory</title>
<path fill="none" stroke="blue" d="M1287.9,-72.6461C1278.84,-62.9188 1266.01,-50.4777 1254.32,-40.0258"/>
<polygon fill="blue" stroke="blue" points="1256.3,-37.1089 1246.46,-33.1655 1251.69,-42.3805 1256.3,-37.1089"/>
</g>
<!-- person -->
<g id="node8" class="node"><title>person</title>
<ellipse fill="none" stroke="black" cx="1490.14" cy="-306" rx="35.9954" ry="18"/>
<text text-anchor="middle" x="1490.14" y="-302.3" font-family="Times New Roman,serif" font-size="14.00">person</text>
</g>
<!-- worker&#45;&gt;person -->
<g id="edge42" class="edge"><title>worker&#45;&gt;person</title>
<path fill="none" stroke="black" d="M1313.19,-106.736C1346.44,-143.992 1430.12,-237.751 1469.3,-281.649"/>
<polygon fill="black" stroke="black" points="1466.81,-284.111 1476.08,-289.241 1472.03,-279.45 1466.81,-284.111"/>
</g>
<!-- worker&#45;&gt;CLUSTER_1 -->
<g id="edge72" class="edge"><title>worker&#45;&gt;CLUSTER_1</title>
<path fill="none" stroke="green" d="M1301.51,-108.01C1305.01,-134.617 1311.14,-187.725 1311.14,-233 1311.14,-233 1311.14,-233 1311.14,-307 1311.14,-414.008 1228.66,-700.542 1137.14,-756 1080.1,-790.569 892.499,-802.772 788.731,-806.939"/>
<polygon fill="green" stroke="green" points="788.508,-803.445 778.651,-807.329 788.779,-810.44 788.508,-803.445"/>
</g>
<!-- worker&#45;&gt;fabric -->
<g id="edge34" class="edge"><title>worker&#45;&gt;fabric</title>
<path fill="none" stroke="blue" d="M1294.01,-107.866C1286.43,-134.281 1273.14,-187.135 1273.14,-233 1273.14,-233 1273.14,-233 1273.14,-307 1273.14,-350.076 1251.47,-396.125 1235.84,-423.732"/>
<polygon fill="blue" stroke="blue" points="1232.63,-422.291 1230.61,-432.692 1238.68,-425.82 1232.63,-422.291"/>
</g>
<!-- wood -->
<g id="node17" class="node"><title>wood</title>
<ellipse fill="none" stroke="black" cx="832.144" cy="-162" rx="31.6951" ry="18"/>
<text text-anchor="middle" x="832.144" y="-158.3" font-family="Times New Roman,serif" font-size="14.00">wood</text>
</g>
<!-- worker&#45;&gt;wood -->
<g id="edge15" class="edge"><title>worker&#45;&gt;wood</title>
<path fill="none" stroke="blue" d="M1264.8,-96.1473C1180.41,-108.797 963.176,-141.359 872.668,-154.926"/>
<polygon fill="blue" stroke="blue" points="871.9,-151.502 862.529,-156.445 872.938,-158.424 871.9,-151.502"/>
</g>
<!-- workbench&#45;&gt;factory -->
<g id="edge83" class="edge"><title>workbench&#45;&gt;factory</title>
<path fill="none" stroke="blue" d="M793.389,-647.838C771.848,-576.949 678.499,-303.21 800.144,-144 847.428,-82.1132 1082.32,-41.118 1181.74,-25.7682"/>
<polygon fill="blue" stroke="blue" points="1182.41,-29.2057 1191.77,-24.2351 1181.35,-22.2861 1182.41,-29.2057"/>
</g>
<!-- furniture -->
<g id="node4" class="node"><title>furniture</title>
<ellipse fill="none" stroke="black" cx="1463.14" cy="-738" rx="40.8928" ry="18"/>
<text text-anchor="middle" x="1463.14" y="-734.3" font-family="Times New Roman,serif" font-size="14.00">furniture</text>
</g>
<!-- workbench&#45;&gt;furniture -->
<g id="edge2" class="edge"><title>workbench&#45;&gt;furniture</title>
<path fill="none" stroke="black" d="M833.669,-678.674C841.354,-680.755 849.461,-682.678 857.144,-684 1101.19,-725.987 1170.27,-671.727 1413.14,-720 1416.57,-720.682 1420.09,-721.538 1423.6,-722.502"/>
<polygon fill="black" stroke="black" points="1422.77,-725.907 1433.35,-725.446 1424.79,-719.205 1422.77,-725.907"/>
</g>
<!-- workbench&#45;&gt;CLUSTER_1 -->
<g id="edge63" class="edge"><title>workbench&#45;&gt;CLUSTER_1</title>
<path fill="none" stroke="green" d="M787.771,-683.847C774.111,-708.4 748.616,-754.227 732.557,-783.092"/>
<polygon fill="green" stroke="green" points="729.307,-781.735 727.504,-792.175 735.424,-785.138 729.307,-781.735"/>
</g>
<!-- toolshed -->
<g id="node19" class="node"><title>toolshed</title>
<ellipse fill="none" stroke="black" cx="610.144" cy="-738" rx="42.4939" ry="18"/>
<text text-anchor="middle" x="610.144" y="-734.3" font-family="Times New Roman,serif" font-size="14.00">toolshed</text>
</g>
<!-- workbench&#45;&gt;toolshed -->
<g id="edge14" class="edge"><title>workbench&#45;&gt;toolshed</title>
<path fill="none" stroke="blue" d="M760.652,-678.716C728.187,-690.18 681.063,-707.742 648.156,-720.592"/>
<polygon fill="blue" stroke="blue" points="646.457,-717.499 638.432,-724.417 649.019,-724.013 646.457,-717.499"/>
</g>
<!-- shears -->
<g id="node20" class="node"><title>shears</title>
<ellipse fill="none" stroke="black" cx="874.144" cy="-594" rx="33.5952" ry="18"/>
<text text-anchor="middle" x="874.144" y="-590.3" font-family="Times New Roman,serif" font-size="14.00">shears</text>
</g>
<!-- workbench&#45;&gt;shears -->
<g id="edge105" class="edge"><title>workbench&#45;&gt;shears</title>
<path fill="none" stroke="blue" d="M819.82,-649.573C830.973,-640.428 844.156,-628.656 854.826,-618.387"/>
<polygon fill="blue" stroke="blue" points="857.418,-620.747 862.085,-611.235 852.505,-615.76 857.418,-620.747"/>
</g>
<!-- instrumentality -->
<g id="node5" class="node"><title>instrumentality</title>
<ellipse fill="none" stroke="black" cx="1282.14" cy="-882" rx="63.0888" ry="18"/>
<text text-anchor="middle" x="1282.14" y="-878.3" font-family="Times New Roman,serif" font-size="14.00">instrumentality</text>
</g>
<!-- furniture&#45;&gt;instrumentality -->
<g id="edge22" class="edge"><title>furniture&#45;&gt;instrumentality</title>
<path fill="none" stroke="black" d="M1443.77,-754.196C1411.81,-779.273 1347.87,-829.439 1310.7,-858.593"/>
<polygon fill="black" stroke="black" points="1308.47,-855.901 1302.76,-864.827 1312.79,-861.409 1308.47,-855.901"/>
</g>
<!-- artifact -->
<g id="node6" class="node"><title>artifact</title>
<ellipse fill="none" stroke="black" cx="371.144" cy="-954" rx="35.9954" ry="18"/>
<text text-anchor="middle" x="371.144" y="-950.3" font-family="Times New Roman,serif" font-size="14.00">artifact</text>
</g>
<!-- instrumentality&#45;&gt;artifact -->
<g id="edge3" class="edge"><title>instrumentality&#45;&gt;artifact</title>
<path fill="none" stroke="black" d="M1222.02,-887.62C1051.59,-900.715 567.939,-937.878 416.833,-949.489"/>
<polygon fill="black" stroke="black" points="416.239,-946.024 406.537,-950.28 416.776,-953.004 416.239,-946.024"/>
</g>
<!-- whole -->
<g id="node7" class="node"><title>whole</title>
<ellipse fill="none" stroke="black" cx="371.144" cy="-1026" rx="32.4942" ry="18"/>
<text text-anchor="middle" x="371.144" y="-1022.3" font-family="Times New Roman,serif" font-size="14.00">whole</text>
</g>
<!-- artifact&#45;&gt;whole -->
<g id="edge4" class="edge"><title>artifact&#45;&gt;whole</title>
<path fill="none" stroke="black" d="M371.144,-972.303C371.144,-980.017 371.144,-989.288 371.144,-997.888"/>
<polygon fill="black" stroke="black" points="367.644,-997.896 371.144,-1007.9 374.644,-997.896 367.644,-997.896"/>
</g>
<!-- physical_entity -->
<g id="node9" class="node"><title>physical_entity</title>
<ellipse fill="none" stroke="black" cx="297.144" cy="-1098" rx="64.9885" ry="18"/>
<text text-anchor="middle" x="297.144" y="-1094.3" font-family="Times New Roman,serif" font-size="14.00">physical_entity</text>
</g>
<!-- whole&#45;&gt;physical_entity -->
<g id="edge10" class="edge"><title>whole&#45;&gt;physical_entity</title>
<path fill="none" stroke="black" d="M355.45,-1041.85C345.729,-1051.04 333.032,-1063.05 321.969,-1073.52"/>
<polygon fill="black" stroke="black" points="319.487,-1071.05 314.628,-1080.46 324.298,-1076.13 319.487,-1071.05"/>
</g>
<!-- person&#45;&gt;physical_entity -->
<g id="edge5" class="edge"><title>person&#45;&gt;physical_entity</title>
<path fill="none" stroke="black" d="M1512.62,-320.204C1546.85,-342.209 1608.14,-389.861 1608.14,-449 1608.14,-449 1608.14,-449 1608.14,-955 1608.14,-1080.23 650.504,-1095.12 372.161,-1096.81"/>
<polygon fill="black" stroke="black" points="372.136,-1093.31 362.156,-1096.87 372.176,-1100.31 372.136,-1093.31"/>
</g>
<!-- organism -->
<g id="node31" class="node"><title>organism</title>
<ellipse fill="none" stroke="black" cx="1490.14" cy="-378" rx="44.393" ry="18"/>
<text text-anchor="middle" x="1490.14" y="-374.3" font-family="Times New Roman,serif" font-size="14.00">organism</text>
</g>
<!-- person&#45;&gt;organism -->
<g id="edge103" class="edge"><title>person&#45;&gt;organism</title>
<path fill="none" stroke="black" d="M1490.14,-324.303C1490.14,-332.017 1490.14,-341.288 1490.14,-349.888"/>
<polygon fill="black" stroke="black" points="1486.64,-349.896 1490.14,-359.896 1493.64,-349.896 1486.64,-349.896"/>
</g>
<!-- entity -->
<g id="node34" class="node"><title>entity</title>
<ellipse fill="none" stroke="black" cx="203.144" cy="-1170" rx="30.5947" ry="18"/>
<text text-anchor="middle" x="203.144" y="-1166.3" font-family="Times New Roman,serif" font-size="14.00">entity</text>
</g>
<!-- physical_entity&#45;&gt;entity -->
<g id="edge54" class="edge"><title>physical_entity&#45;&gt;entity</title>
<path fill="none" stroke="black" d="M275.342,-1115.24C261.65,-1125.43 243.907,-1138.64 229.437,-1149.42"/>
<polygon fill="black" stroke="black" points="227.281,-1146.66 221.351,-1155.44 231.462,-1152.28 227.281,-1146.66"/>
</g>
<!-- fabric&#45;&gt;factory -->
<g id="edge99" class="edge"><title>fabric&#45;&gt;factory</title>
<path fill="none" stroke="blue" d="M1226.96,-432.395C1232.04,-405.896 1235.14,-352.402 1235.14,-307 1235.14,-161 1235.14,-161 1235.14,-161 1235.14,-120.996 1235.14,-74.6528 1232.85,-46.0798"/>
<polygon fill="blue" stroke="blue" points="1236.33,-45.6547 1231.86,-36.0493 1229.36,-46.3461 1236.33,-45.6547"/>
</g>
<!-- fabric&#45;&gt;artifact -->
<g id="edge16" class="edge"><title>fabric&#45;&gt;artifact</title>
<path fill="none" stroke="black" d="M1252.07,-451.128C1331.59,-453.29 1532.14,-470.85 1532.14,-593 1532.14,-593 1532.14,-593 1532.14,-811 1532.14,-899.449 1439.65,-877.368 1354.14,-900 1173.8,-947.734 586.212,-952.598 417.077,-952.996"/>
<polygon fill="black" stroke="black" points="417.005,-949.496 407.011,-953.015 417.018,-956.496 417.005,-949.496"/>
</g>
<!-- fabric&#45;&gt;CLUSTER_1 -->
<g id="edge7" class="edge"><title>fabric&#45;&gt;CLUSTER_1</title>
<path fill="none" stroke="green" d="M1219.49,-468.301C1216.5,-521.109 1199.75,-681.164 1106.14,-756 1058.58,-794.031 887.553,-804.789 789.172,-807.821"/>
<polygon fill="green" stroke="green" points="788.903,-804.327 779.008,-808.114 789.105,-811.324 788.903,-804.327"/>
</g>
<!-- rope -->
<g id="node12" class="node"><title>rope</title>
<ellipse fill="none" stroke="black" cx="832.144" cy="-378" rx="27.0966" ry="18"/>
<text text-anchor="middle" x="832.144" y="-374.3" font-family="Times New Roman,serif" font-size="14.00">rope</text>
</g>
<!-- fabric&#45;&gt;rope -->
<g id="edge47" class="edge"><title>fabric&#45;&gt;rope</title>
<path fill="none" stroke="blue" d="M1190.72,-442.971C1120.7,-429.673 944.937,-397.966 868.47,-384.842"/>
<polygon fill="blue" stroke="blue" points="868.807,-381.349 858.361,-383.117 867.63,-388.249 868.807,-381.349"/>
</g>
<!-- fabric&#45;&gt;wood -->
<g id="edge102" class="edge"><title>fabric&#45;&gt;wood</title>
<path fill="none" stroke="blue" d="M1213.87,-432.31C1194.54,-381.277 1136.07,-229.928 1117.14,-216 1079.07,-187.978 943.408,-172.542 873.882,-166.31"/>
<polygon fill="blue" stroke="blue" points="873.986,-162.806 863.719,-165.423 873.377,-169.78 873.986,-162.806"/>
</g>
<!-- rope&#45;&gt;artifact -->
<g id="edge91" class="edge"><title>rope&#45;&gt;artifact</title>
<path fill="none" stroke="black" d="M810.031,-389.09C788.939,-399.036 756.56,-415.153 730.144,-432 541.734,-552.157 455.669,-582.048 379.144,-792 362.87,-836.648 364.665,-892.901 367.719,-925.719"/>
<polygon fill="black" stroke="black" points="364.262,-926.316 368.779,-935.9 371.224,-925.592 364.262,-926.316"/>
</g>
<!-- rope&#45;&gt;CLUSTER_1 -->
<g id="edge18" class="edge"><title>rope&#45;&gt;CLUSTER_1</title>
<path fill="none" stroke="green" d="M814.11,-391.705C773.847,-421.717 680.144,-501.403 680.144,-593 680.144,-593 680.144,-593 680.144,-667 680.144,-708.367 695.378,-754.278 706.555,-782.395"/>
<polygon fill="green" stroke="green" points="703.423,-783.981 710.454,-791.907 709.9,-781.327 703.423,-783.981"/>
</g>
<!-- rope&#45;&gt;fabric -->
<g id="edge23" class="edge"><title>rope&#45;&gt;fabric</title>
<path fill="none" stroke="blue" d="M857.834,-384.319C923.991,-396.945 1099.85,-428.694 1179.77,-442.462"/>
<polygon fill="blue" stroke="blue" points="1179.49,-445.964 1189.93,-444.204 1180.67,-439.065 1179.49,-445.964"/>
</g>
<!-- stick -->
<g id="node13" class="node"><title>stick</title>
<ellipse fill="none" stroke="black" cx="906.144" cy="-450" rx="27.8951" ry="18"/>
<text text-anchor="middle" x="906.144" y="-446.3" font-family="Times New Roman,serif" font-size="14.00">stick</text>
</g>
<!-- rope&#45;&gt;stick -->
<g id="edge8" class="edge"><title>rope&#45;&gt;stick</title>
<path fill="none" stroke="blue" d="M843.175,-394.884C852.898,-405.208 867.08,-418.733 879.611,-429.679"/>
<polygon fill="blue" stroke="blue" points="877.662,-432.617 887.543,-436.44 882.203,-427.289 877.662,-432.617"/>
</g>
<!-- rope&#45;&gt;wood -->
<g id="edge21" class="edge"><title>rope&#45;&gt;wood</title>
<path fill="none" stroke="blue" d="M836,-360.065C839.558,-323.153 839.835,-235.175 836.831,-190.315"/>
<polygon fill="blue" stroke="blue" points="840.304,-189.841 836.021,-180.151 833.327,-190.397 840.304,-189.841"/>
</g>
<!-- stick&#45;&gt;CLUSTER_1 -->
<g id="edge73" class="edge"><title>stick&#45;&gt;CLUSTER_1</title>
<path fill="none" stroke="green" d="M925.304,-463.325C956.82,-485.273 1016.14,-534.373 1016.14,-593 1016.14,-593 1016.14,-593 1016.14,-667 1016.14,-767.469 876.396,-796.927 788.299,-805.515"/>
<polygon fill="green" stroke="green" points="787.733,-802.052 778.09,-806.44 788.365,-809.023 787.733,-802.052"/>
</g>
<!-- stick&#45;&gt;rope -->
<g id="edge9" class="edge"><title>stick&#45;&gt;rope</title>
<path fill="none" stroke="blue" d="M895.149,-433.154C885.414,-422.814 871.192,-409.251 858.636,-398.286"/>
<polygon fill="blue" stroke="blue" points="860.571,-395.336 850.689,-391.515 856.031,-400.664 860.571,-395.336"/>
</g>
<!-- stick&#45;&gt;wood -->
<g id="edge33" class="edge"><title>stick&#45;&gt;wood</title>
<path fill="none" stroke="blue" d="M903.59,-432.035C897.494,-393.18 880.666,-295.005 855.144,-216 852.263,-207.082 848.421,-197.613 844.703,-189.184"/>
<polygon fill="blue" stroke="blue" points="847.788,-187.514 840.461,-179.861 841.417,-190.413 847.788,-187.514"/>
</g>
<!-- ax -->
<g id="node21" class="node"><title>ax</title>
<ellipse fill="none" stroke="black" cx="906.144" cy="-522" rx="27" ry="18"/>
<text text-anchor="middle" x="906.144" y="-518.3" font-family="Times New Roman,serif" font-size="14.00">ax</text>
</g>
<!-- stick&#45;&gt;ax -->
<g id="edge85" class="edge"><title>stick&#45;&gt;ax</title>
<path fill="none" stroke="blue" d="M900.265,-467.945C899.435,-475.769 899.198,-485.252 899.554,-494.023"/>
<polygon fill="blue" stroke="blue" points="896.078,-494.486 900.282,-504.211 903.06,-493.987 896.078,-494.486"/>
</g>
<!-- implement -->
<g id="node22" class="node"><title>implement</title>
<ellipse fill="none" stroke="black" cx="1282.14" cy="-810" rx="48.1917" ry="18"/>
<text text-anchor="middle" x="1282.14" y="-806.3" font-family="Times New Roman,serif" font-size="14.00">implement</text>
</g>
<!-- stick&#45;&gt;implement -->
<g id="edge20" class="edge"><title>stick&#45;&gt;implement</title>
<path fill="none" stroke="black" d="M928.743,-460.907C949.037,-470.381 979.096,-485.879 1002.14,-504 1115.05,-592.77 1222.28,-728.773 1263.92,-784.199"/>
<polygon fill="black" stroke="black" points="1261.24,-786.463 1270.03,-792.383 1266.85,-782.276 1261.24,-786.463"/>
</g>
<!-- bridge -->
<g id="node14" class="node"><title>bridge</title>
<ellipse fill="none" stroke="black" cx="488.144" cy="-90" rx="33.5952" ry="18"/>
<text text-anchor="middle" x="488.144" y="-86.3" font-family="Times New Roman,serif" font-size="14.00">bridge</text>
</g>
<!-- bridge&#45;&gt;CLUSTER_1 -->
<g id="edge70" class="edge"><title>bridge&#45;&gt;CLUSTER_1</title>
<path fill="none" stroke="green" d="M457.024,-97.6446C400.361,-111.771 286.144,-150.48 286.144,-233 286.144,-233 286.144,-233 286.144,-379 286.144,-566.234 322.525,-646.145 474.144,-756 524.33,-792.363 594.563,-804.641 646.798,-808.394"/>
<polygon fill="green" stroke="green" points="646.794,-811.9 656.994,-809.035 647.233,-804.914 646.794,-811.9"/>
</g>
<!-- bridge&#45;&gt;rope -->
<g id="edge98" class="edge"><title>bridge&#45;&gt;rope</title>
<path fill="none" stroke="blue" d="M510.196,-104.017C558.682,-133.231 676.938,-207.766 761.144,-288 782.021,-307.893 802.162,-334.018 815.625,-352.811"/>
<polygon fill="blue" stroke="blue" points="812.872,-354.979 821.496,-361.134 818.592,-350.945 812.872,-354.979"/>
</g>
<!-- structure -->
<g id="node15" class="node"><title>structure</title>
<ellipse fill="none" stroke="black" cx="430.144" cy="-810" rx="42.4939" ry="18"/>
<text text-anchor="middle" x="430.144" y="-806.3" font-family="Times New Roman,serif" font-size="14.00">structure</text>
</g>
<!-- bridge&#45;&gt;structure -->
<g id="edge11" class="edge"><title>bridge&#45;&gt;structure</title>
<path fill="none" stroke="black" d="M454.61,-92.8069C380.671,-98.781 210.144,-124.338 210.144,-233 210.144,-233 210.144,-233 210.144,-379 210.144,-547.405 117.65,-649.55 248.144,-756 285.326,-786.332 339.194,-799.305 378.678,-804.854"/>
<polygon fill="black" stroke="black" points="378.276,-808.331 388.642,-806.141 379.173,-801.389 378.276,-808.331"/>
</g>
<!-- bridge&#45;&gt;wood -->
<g id="edge90" class="edge"><title>bridge&#45;&gt;wood</title>
<path fill="none" stroke="blue" d="M519.278,-97.3355C581.888,-110.076 722.954,-138.781 792.228,-152.878"/>
<polygon fill="blue" stroke="blue" points="791.812,-156.365 802.309,-154.929 793.208,-149.505 791.812,-156.365"/>
</g>
<!-- iron -->
<g id="node23" class="node"><title>iron</title>
<ellipse fill="none" stroke="black" cx="560.144" cy="-306" rx="27" ry="18"/>
<text text-anchor="middle" x="560.144" y="-302.3" font-family="Times New Roman,serif" font-size="14.00">iron</text>
</g>
<!-- bridge&#45;&gt;iron -->
<g id="edge52" class="edge"><title>bridge&#45;&gt;iron</title>
<path fill="none" stroke="blue" d="M493.793,-107.792C506.28,-144.905 536.304,-234.142 551.304,-278.726"/>
<polygon fill="blue" stroke="blue" points="548.014,-279.924 554.52,-288.286 554.648,-277.692 548.014,-279.924"/>
</g>
<!-- structure&#45;&gt;artifact -->
<g id="edge38" class="edge"><title>structure&#45;&gt;artifact</title>
<path fill="none" stroke="black" d="M423.144,-827.847C412.986,-852.294 394.067,-897.829 382.065,-926.714"/>
<polygon fill="black" stroke="black" points="378.739,-925.597 378.134,-936.175 385.203,-928.283 378.739,-925.597"/>
</g>
<!-- gold -->
<g id="node16" class="node"><title>gold</title>
<ellipse fill="none" stroke="black" cx="505.144" cy="-378" rx="27" ry="18"/>
<text text-anchor="middle" x="505.144" y="-374.3" font-family="Times New Roman,serif" font-size="14.00">gold</text>
</g>
<!-- gold&#45;&gt;CLUSTER_1 -->
<g id="edge51" class="edge"><title>gold&#45;&gt;CLUSTER_1</title>
<path fill="none" stroke="green" d="M498.135,-395.423C474.45,-453.783 404.179,-653.158 502.144,-756 522.702,-777.582 597.026,-792.409 652.787,-800.78"/>
<polygon fill="green" stroke="green" points="652.565,-804.284 662.966,-802.267 653.577,-797.358 652.565,-804.284"/>
</g>
<!-- gold&#45;&gt;wood -->
<g id="edge12" class="edge"><title>gold&#45;&gt;wood</title>
<path fill="none" stroke="blue" d="M504.991,-359.722C505.637,-340.57 509.185,-309.543 524.144,-288 585.659,-199.403 721.528,-173.544 790.388,-166.04"/>
<polygon fill="blue" stroke="blue" points="790.847,-169.512 800.444,-165.023 790.143,-162.547 790.847,-169.512"/>
</g>
<!-- gem -->
<g id="node18" class="node"><title>gem</title>
<ellipse fill="none" stroke="black" cx="509.144" cy="-522" rx="27" ry="18"/>
<text text-anchor="middle" x="509.144" y="-518.3" font-family="Times New Roman,serif" font-size="14.00">gem</text>
</g>
<!-- gold&#45;&gt;gem -->
<g id="edge82" class="edge"><title>gold&#45;&gt;gem</title>
<path fill="none" stroke="blue" d="M501.064,-395.847C499.15,-420.08 500.123,-465.035 502.947,-493.954"/>
<polygon fill="blue" stroke="blue" points="499.502,-494.638 504.117,-504.175 506.457,-493.842 499.502,-494.638"/>
</g>
<!-- gold&#45;&gt;iron -->
<g id="edge101" class="edge"><title>gold&#45;&gt;iron</title>
<path fill="none" stroke="blue" d="M521.348,-363.35C529.555,-354.46 539.218,-342.595 546.966,-332.046"/>
<polygon fill="blue" stroke="blue" points="550.031,-333.774 552.949,-323.589 544.316,-329.731 550.031,-333.774"/>
</g>
<!-- relation -->
<g id="node27" class="node"><title>relation</title>
<ellipse fill="none" stroke="black" cx="351.144" cy="-450" rx="37.0935" ry="18"/>
<text text-anchor="middle" x="351.144" y="-446.3" font-family="Times New Roman,serif" font-size="14.00">relation</text>
</g>
<!-- gold&#45;&gt;relation -->
<g id="edge76" class="edge"><title>gold&#45;&gt;relation</title>
<path fill="none" stroke="black" d="M483.406,-388.881C458.268,-400.307 416.523,-419.282 386.654,-432.859"/>
<polygon fill="black" stroke="black" points="385.065,-429.737 377.409,-437.061 387.961,-436.109 385.065,-429.737"/>
</g>
<!-- wood&#45;&gt;CLUSTER_1 -->
<g id="edge87" class="edge"><title>wood&#45;&gt;CLUSTER_1</title>
<path fill="none" stroke="green" d="M863.841,-164.326C928.969,-169.049 1075.62,-190.527 1122.14,-288 1139.14,-323.621 1202.87,-231.421 1068.14,-684 1058.1,-717.738 1063.1,-734.603 1035.14,-756 997.328,-784.948 869,-798.856 787.679,-804.91"/>
<polygon fill="green" stroke="green" points="787.236,-801.433 777.514,-805.645 787.74,-808.415 787.236,-801.433"/>
</g>
<!-- wood&#45;&gt;rope -->
<g id="edge60" class="edge"><title>wood&#45;&gt;rope</title>
<path fill="none" stroke="blue" d="M828.266,-180.151C824.721,-217.26 824.457,-305.253 827.474,-349.946"/>
<polygon fill="blue" stroke="blue" points="823.997,-350.377 828.287,-360.065 830.975,-349.816 823.997,-350.377"/>
</g>
<!-- wood&#45;&gt;iron -->
<g id="edge43" class="edge"><title>wood&#45;&gt;iron</title>
<path fill="none" stroke="blue" d="M803.744,-170.437C774.449,-179.752 728.496,-196.836 691.144,-216 651.084,-236.553 607.744,-265.192 582.117,-284.378"/>
<polygon fill="blue" stroke="blue" points="579.942,-281.635 574.135,-290.497 584.201,-287.19 579.942,-281.635"/>
</g>
<!-- grass -->
<g id="node24" class="node"><title>grass</title>
<ellipse fill="none" stroke="black" cx="975.144" cy="-234" rx="29.795" ry="18"/>
<text text-anchor="middle" x="975.144" y="-230.3" font-family="Times New Roman,serif" font-size="14.00">grass</text>
</g>
<!-- wood&#45;&gt;grass -->
<g id="edge37" class="edge"><title>wood&#45;&gt;grass</title>
<path fill="none" stroke="blue" d="M853.008,-175.839C876.306,-188.126 914.006,-206.602 941.452,-219.2"/>
<polygon fill="blue" stroke="blue" points="940.139,-222.447 950.692,-223.391 943.031,-216.073 940.139,-222.447"/>
</g>
<!-- substance -->
<g id="node26" class="node"><title>substance</title>
<ellipse fill="none" stroke="black" cx="370.144" cy="-378" rx="46.5926" ry="18"/>
<text text-anchor="middle" x="370.144" y="-374.3" font-family="Times New Roman,serif" font-size="14.00">substance</text>
</g>
<!-- wood&#45;&gt;substance -->
<g id="edge27" class="edge"><title>wood&#45;&gt;substance</title>
<path fill="none" stroke="black" d="M800.116,-163.265C716.272,-164.572 492.903,-172.184 436.144,-216 393.812,-248.678 378.465,-313.149 373.026,-349.817"/>
<polygon fill="black" stroke="black" points="369.546,-349.429 371.688,-359.805 376.484,-350.359 369.546,-349.429"/>
</g>
<!-- gem&#45;&gt;artifact -->
<g id="edge13" class="edge"><title>gem&#45;&gt;artifact</title>
<path fill="none" stroke="black" d="M489.376,-534.275C446.429,-560.257 346.648,-629.144 324.144,-720 304.909,-797.653 295.757,-825.206 324.144,-900 328.599,-911.739 336.976,-922.544 345.437,-931.293"/>
<polygon fill="black" stroke="black" points="343.181,-933.981 352.799,-938.424 348.052,-928.953 343.181,-933.981"/>
</g>
<!-- gem&#45;&gt;CLUSTER_1 -->
<g id="edge46" class="edge"><title>gem&#45;&gt;CLUSTER_1</title>
<path fill="none" stroke="green" d="M504.466,-540.018C494.026,-582.058 473.659,-692.037 526.144,-756 542.509,-775.945 605.03,-790.646 654.339,-799.44"/>
<polygon fill="green" stroke="green" points="653.871,-802.911 664.323,-801.173 655.069,-796.014 653.871,-802.911"/>
</g>
<!-- gem&#45;&gt;gold -->
<g id="edge84" class="edge"><title>gem&#45;&gt;gold</title>
<path fill="none" stroke="blue" d="M513.222,-504.175C515.137,-479.954 514.166,-435 511.343,-406.072"/>
<polygon fill="blue" stroke="blue" points="514.787,-405.384 510.173,-395.847 507.833,-406.18 514.787,-405.384"/>
</g>
<!-- gem&#45;&gt;wood -->
<g id="edge19" class="edge"><title>gem&#45;&gt;wood</title>
<path fill="none" stroke="blue" d="M519.651,-505.254C531.831,-487.22 552.724,-456.947 572.144,-432 623.845,-365.582 636.609,-348.482 695.144,-288 732.438,-249.464 779.197,-208.16 807.317,-184.001"/>
<polygon fill="blue" stroke="blue" points="809.748,-186.527 815.073,-177.368 805.198,-181.208 809.748,-186.527"/>
</g>
<!-- gem&#45;&gt;toolshed -->
<g id="edge56" class="edge"><title>gem&#45;&gt;toolshed</title>
<path fill="none" stroke="blue" d="M519.93,-538.852C526.731,-549.188 535.459,-563.105 542.144,-576 565.96,-621.94 588.222,-678.123 600.432,-710.513"/>
<polygon fill="blue" stroke="blue" points="597.254,-712.008 604.032,-720.15 603.811,-709.558 597.254,-712.008"/>
</g>
<!-- toolshed&#45;&gt;workbench -->
<g id="edge53" class="edge"><title>toolshed&#45;&gt;workbench</title>
<path fill="none" stroke="blue" d="M643.149,-726.511C674.952,-715.35 722.915,-697.512 756.915,-684.272"/>
<polygon fill="blue" stroke="blue" points="758.513,-687.405 766.546,-680.497 755.959,-680.888 758.513,-687.405"/>
</g>
<!-- toolshed&#45;&gt;CLUSTER_1 -->
<g id="edge93" class="edge"><title>toolshed&#45;&gt;CLUSTER_1</title>
<path fill="none" stroke="green" d="M632.521,-753.504C647.779,-763.393 668.238,-776.654 685.331,-787.732"/>
<polygon fill="green" stroke="green" points="683.622,-790.795 693.917,-793.297 687.429,-784.921 683.622,-790.795"/>
</g>
<!-- toolshed&#45;&gt;structure -->
<g id="edge41" class="edge"><title>toolshed&#45;&gt;structure</title>
<path fill="none" stroke="black" d="M580.016,-750.716C549.774,-762.477 503.026,-780.657 469.789,-793.582"/>
<polygon fill="black" stroke="black" points="468.421,-790.359 460.37,-797.245 470.958,-796.883 468.421,-790.359"/>
</g>
<!-- toolshed&#45;&gt;wood -->
<g id="edge104" class="edge"><title>toolshed&#45;&gt;wood</title>
<path fill="none" stroke="blue" d="M593.895,-720.958C563.361,-689.566 498.235,-616.386 473.144,-540 442.997,-448.225 460.166,-397.111 469.144,-360 486.618,-287.766 492.208,-257.075 554.144,-216 592.331,-190.675 722.45,-174.118 790.266,-166.996"/>
<polygon fill="blue" stroke="blue" points="791.002,-170.439 800.592,-165.934 790.286,-163.476 791.002,-170.439"/>
</g>
<!-- toolshed&#45;&gt;shears -->
<g id="edge94" class="edge"><title>toolshed&#45;&gt;shears</title>
<path fill="none" stroke="blue" d="M628.995,-721.584C653.002,-702.484 696.288,-669.802 737.144,-648 754.908,-638.52 802.885,-620.569 837.042,-608.205"/>
<polygon fill="blue" stroke="blue" points="838.49,-611.403 846.711,-604.72 836.116,-604.818 838.49,-611.403"/>
</g>
<!-- shears&#45;&gt;workbench -->
<g id="edge44" class="edge"><title>shears&#45;&gt;workbench</title>
<path fill="none" stroke="blue" d="M853.839,-608.497C842.4,-617.729 828.333,-630.22 816.985,-641.11"/>
<polygon fill="blue" stroke="blue" points="814.311,-638.829 809.629,-648.333 819.216,-643.824 814.311,-638.829"/>
</g>
<!-- shears&#45;&gt;rope -->
<g id="edge78" class="edge"><title>shears&#45;&gt;rope</title>
<path fill="none" stroke="blue" d="M870.82,-576.065C863.56,-539.075 846.236,-450.803 837.449,-406.031"/>
<polygon fill="blue" stroke="blue" points="840.87,-405.289 835.51,-396.151 834.001,-406.638 840.87,-405.289"/>
</g>
<!-- shears&#45;&gt;ax -->
<g id="edge17" class="edge"><title>shears&#45;&gt;ax</title>
<path fill="none" stroke="blue" d="M887.044,-577.329C891.68,-569.257 896.568,-559.186 900.427,-549.916"/>
<polygon fill="blue" stroke="blue" points="903.802,-550.893 904.149,-540.303 897.274,-548.365 903.802,-550.893"/>
</g>
<!-- CLUSTER_0 -->
<g id="node28" class="node"><title>CLUSTER_0</title>
<ellipse fill="none" stroke="black" cx="927.144" cy="-666" rx="61.1893" ry="18"/>
<text text-anchor="middle" x="927.144" y="-662.3" font-family="Times New Roman,serif" font-size="14.00">CLUSTER_0</text>
</g>
<!-- shears&#45;&gt;CLUSTER_0 -->
<g id="edge30" class="edge"><title>shears&#45;&gt;CLUSTER_0</title>
<path fill="none" stroke="green" d="M886.17,-610.884C892.69,-619.495 900.895,-630.333 908.248,-640.043"/>
<polygon fill="green" stroke="green" points="905.599,-642.343 914.426,-648.203 911.18,-638.117 905.599,-642.343"/>
</g>
<!-- scissors -->
<g id="node29" class="node"><title>scissors</title>
<ellipse fill="none" stroke="black" cx="1312.14" cy="-666" rx="40.0939" ry="18"/>
<text text-anchor="middle" x="1312.14" y="-662.3" font-family="Times New Roman,serif" font-size="14.00">scissors</text>
</g>
<!-- shears&#45;&gt;scissors -->
<g id="edge100" class="edge"><title>shears&#45;&gt;scissors</title>
<path fill="none" stroke="black" d="M905.996,-600.091C982.197,-612.269 1175.32,-643.133 1265.02,-657.469"/>
<polygon fill="black" stroke="black" points="1264.49,-660.928 1274.92,-659.05 1265.59,-654.016 1264.49,-660.928"/>
</g>
<!-- ax&#45;&gt;stick -->
<g id="edge32" class="edge"><title>ax&#45;&gt;stick</title>
<path fill="none" stroke="blue" d="M912.005,-504.211C912.843,-496.409 913.088,-486.933 912.74,-478.152"/>
<polygon fill="blue" stroke="blue" points="916.216,-477.675 912.022,-467.945 909.233,-478.166 916.216,-477.675"/>
</g>
<!-- ax&#45;&gt;wood -->
<g id="edge81" class="edge"><title>ax&#45;&gt;wood</title>
<path fill="none" stroke="blue" d="M920.27,-506.135C928.706,-496.193 938.632,-482.344 943.144,-468 947.944,-452.737 945.574,-447.814 943.144,-432 927.855,-332.523 922.802,-304.645 875.144,-216 869.387,-205.293 861.339,-194.656 853.76,-185.752"/>
<polygon fill="blue" stroke="blue" points="856.253,-183.288 847.01,-178.11 851.007,-187.922 856.253,-183.288"/>
</g>
<!-- ax&#45;&gt;shears -->
<g id="edge35" class="edge"><title>ax&#45;&gt;shears</title>
<path fill="none" stroke="blue" d="M893.522,-538.189C888.753,-546.426 883.691,-556.845 879.737,-566.382"/>
<polygon fill="blue" stroke="blue" points="876.409,-565.284 876.076,-575.873 882.94,-567.803 876.409,-565.284"/>
</g>
<!-- ax&#45;&gt;CLUSTER_0 -->
<g id="edge57" class="edge"><title>ax&#45;&gt;CLUSTER_0</title>
<path fill="none" stroke="green" d="M910.115,-540.111C912.412,-550.457 915.218,-563.936 917.144,-576 920.431,-596.599 923.019,-620.05 924.738,-637.707"/>
<polygon fill="green" stroke="green" points="921.273,-638.246 925.695,-647.874 928.243,-637.591 921.273,-638.246"/>
</g>
<!-- edge_tool -->
<g id="node30" class="node"><title>edge_tool</title>
<ellipse fill="none" stroke="black" cx="1357.14" cy="-738" rx="46.5926" ry="18"/>
<text text-anchor="middle" x="1357.14" y="-734.3" font-family="Times New Roman,serif" font-size="14.00">edge_tool</text>
</g>
<!-- ax&#45;&gt;edge_tool -->
<g id="edge58" class="edge"><title>ax&#45;&gt;edge_tool</title>
<path fill="none" stroke="black" d="M932.686,-526.125C1021.79,-537.211 1307.63,-577.803 1361.14,-648 1374.5,-665.517 1371.76,-691.085 1366.69,-710.328"/>
<polygon fill="black" stroke="black" points="1363.31,-709.423 1363.82,-720.006 1370.02,-711.416 1363.31,-709.423"/>
</g>
<!-- implement&#45;&gt;instrumentality -->
<g id="edge62" class="edge"><title>implement&#45;&gt;instrumentality</title>
<path fill="none" stroke="black" d="M1282.14,-828.303C1282.14,-836.017 1282.14,-845.288 1282.14,-853.888"/>
<polygon fill="black" stroke="black" points="1278.64,-853.896 1282.14,-863.896 1285.64,-853.896 1278.64,-853.896"/>
</g>
<!-- iron&#45;&gt;CLUSTER_1 -->
<g id="edge24" class="edge"><title>iron&#45;&gt;CLUSTER_1</title>
<path fill="none" stroke="green" d="M558.94,-324.109C553.617,-401.964 533.562,-720.508 559.144,-756 579.573,-784.344 615.82,-797.759 648.55,-804.014"/>
<polygon fill="green" stroke="green" points="648.126,-807.492 658.574,-805.734 649.31,-800.593 648.126,-807.492"/>
</g>
<!-- iron&#45;&gt;rope -->
<g id="edge89" class="edge"><title>iron&#45;&gt;rope</title>
<path fill="none" stroke="blue" d="M585.245,-313.46C634.026,-326.014 741.705,-353.725 797.345,-368.044"/>
<polygon fill="blue" stroke="blue" points="796.546,-371.453 807.103,-370.556 798.291,-364.674 796.546,-371.453"/>
</g>
<!-- iron&#45;&gt;gold -->
<g id="edge28" class="edge"><title>iron&#45;&gt;gold</title>
<path fill="none" stroke="blue" d="M544.081,-320.497C535.731,-329.525 525.848,-341.67 518.004,-352.387"/>
<polygon fill="blue" stroke="blue" points="515.123,-350.399 512.218,-360.588 520.843,-354.434 515.123,-350.399"/>
</g>
<!-- iron&#45;&gt;wood -->
<g id="edge40" class="edge"><title>iron&#45;&gt;wood</title>
<path fill="none" stroke="blue" d="M580.679,-294.161C609.173,-276.356 661.481,-240.454 709.144,-216 738.53,-200.923 773.24,-187.134 798.407,-177.401"/>
<polygon fill="blue" stroke="blue" points="799.817,-180.609 807.89,-173.747 797.3,-174.077 799.817,-180.609"/>
</g>
<!-- iron&#45;&gt;substance -->
<g id="edge95" class="edge"><title>iron&#45;&gt;substance</title>
<path fill="none" stroke="black" d="M536.846,-315.583C506.009,-326.944 451.075,-347.183 412.727,-361.311"/>
<polygon fill="black" stroke="black" points="411.047,-358.2 402.873,-364.942 413.467,-364.769 411.047,-358.2"/>
</g>
<!-- grass&#45;&gt;CLUSTER_1 -->
<g id="edge61" class="edge"><title>grass&#45;&gt;CLUSTER_1</title>
<path fill="none" stroke="green" d="M948.608,-242.924C882.945,-264.348 718.144,-329.975 718.144,-449 718.144,-449 718.144,-449 718.144,-667 718.144,-707.004 718.144,-753.347 718.144,-781.92"/>
<polygon fill="green" stroke="green" points="714.644,-781.951 718.144,-791.951 721.644,-781.951 714.644,-781.951"/>
</g>
<!-- grass&#45;&gt;rope -->
<g id="edge25" class="edge"><title>grass&#45;&gt;rope</title>
<path fill="none" stroke="blue" d="M960.379,-249.662C935.093,-274.77 883.388,-326.114 853.941,-355.355"/>
<polygon fill="blue" stroke="blue" points="851.245,-353.1 846.615,-362.63 856.177,-358.067 851.245,-353.1"/>
</g>
<!-- grass&#45;&gt;wood -->
<g id="edge69" class="edge"><title>grass&#45;&gt;wood</title>
<path fill="none" stroke="blue" d="M954.7,-220.383C931.712,-208.243 894.343,-189.913 866.818,-177.252"/>
<polygon fill="blue" stroke="blue" points="868.084,-173.983 857.533,-173.029 865.187,-180.355 868.084,-173.983"/>
</g>
<!-- bed -->
<g id="node25" class="node"><title>bed</title>
<ellipse fill="none" stroke="black" cx="1010.14" cy="-306" rx="27" ry="18"/>
<text text-anchor="middle" x="1010.14" y="-302.3" font-family="Times New Roman,serif" font-size="14.00">bed</text>
</g>
<!-- grass&#45;&gt;bed -->
<g id="edge75" class="edge"><title>grass&#45;&gt;bed</title>
<path fill="none" stroke="blue" d="M977.738,-251.945C981.216,-260.776 986.506,-271.719 991.905,-281.368"/>
<polygon fill="blue" stroke="blue" points="988.965,-283.274 997.058,-290.112 994.996,-279.72 988.965,-283.274"/>
</g>
<!-- grass&#45;&gt;plant -->
<g id="edge92" class="edge"><title>grass&#45;&gt;plant</title>
<path fill="none" stroke="black" d="M994.883,-247.676C1012.04,-258.696 1037.09,-274.784 1056.29,-287.113"/>
<polygon fill="black" stroke="black" points="1054.61,-290.194 1064.92,-292.653 1058.39,-284.304 1054.61,-290.194"/>
</g>
<!-- bed&#45;&gt;furniture -->
<g id="edge66" class="edge"><title>bed&#45;&gt;furniture</title>
<path fill="none" stroke="black" d="M1024.92,-321.37C1054.12,-349.703 1121.39,-414.658 1179.14,-468 1267.23,-549.367 1294.5,-564.065 1380.14,-648 1401.87,-669.288 1425.4,-694.776 1441.85,-713.01"/>
<polygon fill="black" stroke="black" points="1439.58,-715.732 1448.87,-720.836 1444.79,-711.056 1439.58,-715.732"/>
</g>
<!-- bed&#45;&gt;CLUSTER_1 -->
<g id="edge26" class="edge"><title>bed&#45;&gt;CLUSTER_1</title>
<path fill="none" stroke="green" d="M1014.6,-323.945C1025.79,-367.976 1054.14,-489.763 1054.14,-593 1054.14,-593 1054.14,-593 1054.14,-667 1054.14,-780.918 888.244,-804.854 789.591,-809.017"/>
<polygon fill="green" stroke="green" points="789.247,-805.527 779.38,-809.388 789.501,-812.523 789.247,-805.527"/>
</g>
<!-- bed&#45;&gt;rope -->
<g id="edge59" class="edge"><title>bed&#45;&gt;rope</title>
<path fill="none" stroke="blue" d="M987.626,-316.45C981.632,-318.935 975.152,-321.593 969.144,-324 933.723,-338.192 892.907,-353.9 865.102,-364.503"/>
<polygon fill="blue" stroke="blue" points="863.581,-361.337 855.481,-368.166 866.072,-367.879 863.581,-361.337"/>
</g>
<!-- bed&#45;&gt;wood -->
<g id="edge39" class="edge"><title>bed&#45;&gt;wood</title>
<path fill="none" stroke="blue" d="M1016.65,-288.394C1023.06,-268.998 1029.83,-236.908 1014.14,-216 997.168,-193.376 920.938,-177.24 872.678,-169.078"/>
<polygon fill="blue" stroke="blue" points="872.976,-165.58 862.541,-167.411 871.84,-172.487 872.976,-165.58"/>
</g>
<!-- bed&#45;&gt;grass -->
<g id="edge79" class="edge"><title>bed&#45;&gt;grass</title>
<path fill="none" stroke="blue" d="M1007.48,-287.873C1004.02,-279.139 998.821,-268.375 993.501,-258.843"/>
<polygon fill="blue" stroke="blue" points="996.5,-257.038 988.416,-250.189 990.464,-260.584 996.5,-257.038"/>
</g>
<!-- substance&#45;&gt;physical_entity -->
<g id="edge68" class="edge"><title>substance&#45;&gt;physical_entity</title>
<path fill="none" stroke="black" d="M345.264,-393.361C331.377,-402.646 314.948,-415.979 305.144,-432 215.684,-578.178 224.144,-637.621 224.144,-809 224.144,-809 224.144,-809 224.144,-955 224.144,-1000.22 253.784,-1045.47 275.291,-1072.35"/>
<polygon fill="black" stroke="black" points="272.602,-1074.59 281.662,-1080.08 278.004,-1070.13 272.602,-1074.59"/>
</g>
<!-- substance&#45;&gt;relation -->
<g id="edge29" class="edge"><title>substance&#45;&gt;relation</title>
<path fill="none" stroke="black" d="M365.544,-395.945C363.429,-403.739 360.867,-413.178 358.494,-421.921"/>
<polygon fill="black" stroke="black" points="355.074,-421.157 355.833,-431.725 361.83,-422.991 355.074,-421.157"/>
</g>
<!-- relation&#45;&gt;entity -->
<g id="edge50" class="edge"><title>relation&#45;&gt;entity</title>
<path fill="none" stroke="black" d="M321.592,-461.175C257.238,-485.424 110.144,-553.09 110.144,-665 110.144,-665 110.144,-665 110.144,-1027 110.144,-1076.62 150.376,-1122.4 177.917,-1147.92"/>
<polygon fill="black" stroke="black" points="175.874,-1150.79 185.651,-1154.87 180.553,-1145.58 175.874,-1150.79"/>
</g>
<!-- scissors&#45;&gt;implement -->
<g id="edge45" class="edge"><title>scissors&#45;&gt;implement</title>
<path fill="none" stroke="black" d="M1308.52,-684.129C1303.39,-708.436 1293.94,-753.181 1287.85,-781.987"/>
<polygon fill="black" stroke="black" points="1284.42,-781.303 1285.78,-791.811 1291.27,-782.75 1284.42,-781.303"/>
</g>
<!-- scissors&#45;&gt;edge_tool -->
<g id="edge31" class="edge"><title>scissors&#45;&gt;edge_tool</title>
<path fill="none" stroke="black" d="M1322.81,-683.589C1328.17,-691.923 1334.77,-702.203 1340.76,-711.512"/>
<polygon fill="black" stroke="black" points="1337.89,-713.525 1346.24,-720.044 1343.78,-709.739 1337.89,-713.525"/>
</g>
<!-- edge_tool&#45;&gt;implement -->
<g id="edge49" class="edge"><title>edge_tool&#45;&gt;implement</title>
<path fill="none" stroke="black" d="M1340.12,-754.884C1330.32,-764.038 1317.81,-775.707 1306.93,-785.865"/>
<polygon fill="black" stroke="black" points="1304.28,-783.555 1299.35,-792.936 1309.05,-788.672 1304.28,-783.555"/>
</g>
<!-- organism&#45;&gt;whole -->
<g id="edge36" class="edge"><title>organism&#45;&gt;whole</title>
<path fill="none" stroke="black" d="M1506.33,-394.827C1529.71,-419.456 1570.14,-469.501 1570.14,-521 1570.14,-521 1570.14,-521 1570.14,-883 1570.14,-1001.91 628.077,-1021.59 414.045,-1024.52"/>
<polygon fill="black" stroke="black" points="413.789,-1021.03 403.836,-1024.66 413.881,-1028.02 413.789,-1021.03"/>
</g>
<!-- lumber -->
<g id="node32" class="node"><title>lumber</title>
<ellipse fill="none" stroke="black" cx="99.1436" cy="-90" rx="35.9954" ry="18"/>
<text text-anchor="middle" x="99.1436" y="-86.3" font-family="Times New Roman,serif" font-size="14.00">lumber</text>
</g>
<!-- building_material -->
<g id="node33" class="node"><title>building_material</title>
<ellipse fill="none" stroke="black" cx="72.1436" cy="-234" rx="72.2875" ry="18"/>
<text text-anchor="middle" x="72.1436" y="-230.3" font-family="Times New Roman,serif" font-size="14.00">building_material</text>
</g>
<!-- lumber&#45;&gt;building_material -->
<g id="edge48" class="edge"><title>lumber&#45;&gt;building_material</title>
<path fill="none" stroke="black" d="M95.8868,-108.129C91.2851,-132.33 82.8316,-176.789 77.3522,-205.607"/>
<polygon fill="black" stroke="black" points="73.8416,-205.333 75.412,-215.811 80.7184,-206.641 73.8416,-205.333"/>
</g>
<!-- building_material&#45;&gt;artifact -->
<g id="edge64" class="edge"><title>building_material&#45;&gt;artifact</title>
<path fill="none" stroke="black" d="M79.8335,-252.093C90.9372,-278.377 110.144,-330.553 110.144,-377 110.144,-377 110.144,-377 110.144,-451 110.144,-669.277 163.111,-737.767 309.144,-900 319.588,-911.603 332.534,-923.041 343.891,-932.305"/>
<polygon fill="black" stroke="black" points="341.823,-935.132 351.821,-938.637 346.191,-929.662 341.823,-935.132"/>
</g>
<!-- board -->
<g id="node35" class="node"><title>board</title>
<ellipse fill="none" stroke="black" cx="488.144" cy="-18" rx="32.4942" ry="18"/>
<text text-anchor="middle" x="488.144" y="-14.3" font-family="Times New Roman,serif" font-size="14.00">board</text>
</g>
<!-- board&#45;&gt;CLUSTER_1 -->
<g id="edge96" class="edge"><title>board&#45;&gt;CLUSTER_1</title>
<path fill="none" stroke="green" d="M455.516,-18.9812C374.779,-20.8156 172.144,-37.7014 172.144,-161 172.144,-161 172.144,-161 172.144,-379 172.144,-580.789 246.361,-662.429 425.144,-756 494.884,-792.501 585.325,-804.331 647.165,-807.925"/>
<polygon fill="green" stroke="green" points="647.049,-811.424 657.218,-808.452 647.415,-804.433 647.049,-811.424"/>
</g>
<!-- board&#45;&gt;rope -->
<g id="edge71" class="edge"><title>board&#45;&gt;rope</title>
<path fill="none" stroke="blue" d="M501.582,-34.8344C548.375,-89.8355 704.385,-272.073 761.144,-324 774.829,-336.52 791.375,-349.005 805.05,-358.71"/>
<polygon fill="blue" stroke="blue" points="803.361,-361.799 813.563,-364.658 807.371,-356.061 803.361,-361.799"/>
</g>
<!-- board&#45;&gt;bridge -->
<g id="edge97" class="edge"><title>board&#45;&gt;bridge</title>
<path fill="none" stroke="blue" d="M488.144,-36.3034C488.144,-44.0173 488.144,-53.2875 488.144,-61.8876"/>
<polygon fill="blue" stroke="blue" points="484.644,-61.8956 488.144,-71.8957 491.644,-61.8957 484.644,-61.8956"/>
</g>
<!-- board&#45;&gt;wood -->
<g id="edge65" class="edge"><title>board&#45;&gt;wood</title>
<path fill="none" stroke="blue" d="M518.871,-24.058C559.314,-31.3824 632.075,-46.8838 690.144,-72 733.035,-90.5515 778.003,-120.859 805.557,-140.867"/>
<polygon fill="blue" stroke="blue" points="803.736,-143.873 813.867,-146.974 807.882,-138.232 803.736,-143.873"/>
</g>
<!-- board&#45;&gt;lumber -->
<g id="edge80" class="edge"><title>board&#45;&gt;lumber</title>
<path fill="none" stroke="black" d="M456.506,-22.7821C397.449,-30.129 266.587,-47.7622 158.144,-72 151.794,-73.4191 145.119,-75.1277 138.634,-76.9073"/>
<polygon fill="black" stroke="black" points="137.341,-73.6359 128.675,-79.7305 139.25,-80.3705 137.341,-73.6359"/>
</g>
<!-- plant&#45;&gt;structure -->
<g id="edge88" class="edge"><title>plant&#45;&gt;structure</title>
<path fill="none" stroke="black" d="M1062.6,-317.841C1022.95,-338.15 936.353,-384.212 869.144,-432 699.94,-552.31 517.833,-724.06 453.923,-785.794"/>
<polygon fill="black" stroke="black" points="451.129,-783.627 446.381,-793.098 455.999,-788.655 451.129,-783.627"/>
</g>
<!-- plant&#45;&gt;organism -->
<g id="edge67" class="edge"><title>plant&#45;&gt;organism</title>
<path fill="none" stroke="black" d="M1111.41,-311.702C1178.73,-323.307 1353.58,-353.455 1440.13,-368.376"/>
<polygon fill="black" stroke="black" points="1439.78,-371.868 1450.23,-370.118 1440.97,-364.97 1439.78,-371.868"/>
</g>
</g>
</svg>
