<?xml version="1.0" encoding="UTF-8" standalone="no"?>
<!DOCTYPE svg PUBLIC "-//W3C//DTD SVG 1.1//EN"
 "http://www.w3.org/Graphics/SVG/1.1/DTD/svg11.dtd">
<!-- Generated by graphviz version 2.38.0 (20140413.2041)
 -->
<!-- Title: G Pages: 1 -->
<svg width="1424pt" height="908pt"
 viewBox="0.00 0.00 1423.89 908.00" xmlns="http://www.w3.org/2000/svg" xmlns:xlink="http://www.w3.org/1999/xlink">
<g id="graph0" class="graph" transform="scale(1 1) rotate(0) translate(4 904)">
<title>G</title>
<polygon fill="white" stroke="none" points="-4,4 -4,-904 1419.89,-904 1419.89,4 -4,4"/>
<!-- shed -->
<g id="node1" class="node"><title>shed</title>
<ellipse fill="none" stroke="black" cx="430.144" cy="-594" rx="27.8951" ry="18"/>
<text text-anchor="middle" x="430.144" y="-590.3" font-family="Times New Roman,serif" font-size="14.00">shed</text>
</g>
<!-- outbuilding -->
<g id="node2" class="node"><title>outbuilding</title>
<ellipse fill="none" stroke="black" cx="442.144" cy="-522" rx="51.1914" ry="18"/>
<text text-anchor="middle" x="442.144" y="-518.3" font-family="Times New Roman,serif" font-size="14.00">outbuilding</text>
</g>
<!-- shed&#45;&gt;outbuilding -->
<g id="edge1" class="edge"><title>shed&#45;&gt;outbuilding</title>
<path fill="none" stroke="black" d="M433.048,-576.055C434.37,-568.346 435.968,-559.027 437.453,-550.364"/>
<polygon fill="black" stroke="black" points="440.942,-550.723 439.182,-540.275 434.043,-549.54 440.942,-550.723"/>
</g>
<!-- building -->
<g id="node33" class="node"><title>building</title>
<ellipse fill="none" stroke="black" cx="435.144" cy="-450" rx="39.7935" ry="18"/>
<text text-anchor="middle" x="435.144" y="-446.3" font-family="Times New Roman,serif" font-size="14.00">building</text>
</g>
<!-- outbuilding&#45;&gt;building -->
<g id="edge15" class="edge"><title>outbuilding&#45;&gt;building</title>
<path fill="none" stroke="black" d="M440.413,-503.697C439.642,-495.983 438.715,-486.712 437.855,-478.112"/>
<polygon fill="black" stroke="black" points="441.332,-477.706 436.854,-468.104 434.367,-478.403 441.332,-477.706"/>
</g>
<!-- bridge -->
<g id="node3" class="node"><title>bridge</title>
<ellipse fill="none" stroke="black" cx="565.144" cy="-450" rx="33.5952" ry="18"/>
<text text-anchor="middle" x="565.144" y="-446.3" font-family="Times New Roman,serif" font-size="14.00">bridge</text>
</g>
<!-- structure -->
<g id="node69" class="node"><title>structure</title>
<ellipse fill="none" stroke="black" cx="602.144" cy="-378" rx="42.4939" ry="18"/>
<text text-anchor="middle" x="602.144" y="-374.3" font-family="Times New Roman,serif" font-size="14.00">structure</text>
</g>
<!-- bridge&#45;&gt;structure -->
<g id="edge63" class="edge"><title>bridge&#45;&gt;structure</title>
<path fill="none" stroke="black" d="M573.912,-432.411C578.226,-424.249 583.527,-414.22 588.366,-405.065"/>
<polygon fill="black" stroke="black" points="591.602,-406.433 593.181,-395.956 585.414,-403.162 591.602,-406.433"/>
</g>
<!-- grass -->
<g id="node4" class="node"><title>grass</title>
<ellipse fill="none" stroke="black" cx="591.144" cy="-810" rx="29.795" ry="18"/>
<text text-anchor="middle" x="591.144" y="-806.3" font-family="Times New Roman,serif" font-size="14.00">grass</text>
</g>
<!-- gramineous_plant -->
<g id="node5" class="node"><title>gramineous_plant</title>
<ellipse fill="none" stroke="black" cx="591.144" cy="-738" rx="74.9875" ry="18"/>
<text text-anchor="middle" x="591.144" y="-734.3" font-family="Times New Roman,serif" font-size="14.00">gramineous_plant</text>
</g>
<!-- grass&#45;&gt;gramineous_plant -->
<g id="edge2" class="edge"><title>grass&#45;&gt;gramineous_plant</title>
<path fill="none" stroke="black" d="M591.144,-791.697C591.144,-783.983 591.144,-774.712 591.144,-766.112"/>
<polygon fill="black" stroke="black" points="594.644,-766.104 591.144,-756.104 587.644,-766.104 594.644,-766.104"/>
</g>
<!-- herb -->
<g id="node26" class="node"><title>herb</title>
<ellipse fill="none" stroke="black" cx="616.144" cy="-666" rx="27" ry="18"/>
<text text-anchor="middle" x="616.144" y="-662.3" font-family="Times New Roman,serif" font-size="14.00">herb</text>
</g>
<!-- gramineous_plant&#45;&gt;herb -->
<g id="edge28" class="edge"><title>gramineous_plant&#45;&gt;herb</title>
<path fill="none" stroke="black" d="M597.195,-720.055C600.051,-712.059 603.525,-702.331 606.715,-693.4"/>
<polygon fill="black" stroke="black" points="610.08,-694.384 610.148,-683.789 603.488,-692.029 610.08,-694.384"/>
</g>
<!-- line -->
<g id="node6" class="node"><title>line</title>
<ellipse fill="none" stroke="black" cx="189.144" cy="-378" rx="27" ry="18"/>
<text text-anchor="middle" x="189.144" y="-374.3" font-family="Times New Roman,serif" font-size="14.00">line</text>
</g>
<!-- artifact -->
<g id="node7" class="node"><title>artifact</title>
<ellipse fill="none" stroke="black" cx="406.144" cy="-306" rx="35.9954" ry="18"/>
<text text-anchor="middle" x="406.144" y="-302.3" font-family="Times New Roman,serif" font-size="14.00">artifact</text>
</g>
<!-- line&#45;&gt;artifact -->
<g id="edge3" class="edge"><title>line&#45;&gt;artifact</title>
<path fill="none" stroke="black" d="M210.226,-366.372C215.065,-364.121 220.233,-361.865 225.144,-360 272.008,-342.199 327.557,-326.733 364.64,-317.176"/>
<polygon fill="black" stroke="black" points="365.762,-320.502 374.587,-314.64 364.033,-313.719 365.762,-320.502"/>
</g>
<!-- whole -->
<g id="node43" class="node"><title>whole</title>
<ellipse fill="none" stroke="black" cx="512.144" cy="-234" rx="32.4942" ry="18"/>
<text text-anchor="middle" x="512.144" y="-230.3" font-family="Times New Roman,serif" font-size="14.00">whole</text>
</g>
<!-- artifact&#45;&gt;whole -->
<g id="edge20" class="edge"><title>artifact&#45;&gt;whole</title>
<path fill="none" stroke="black" d="M427.086,-291.17C443.116,-280.584 465.414,-265.859 483.158,-254.142"/>
<polygon fill="black" stroke="black" points="485.548,-256.757 491.964,-248.326 481.691,-250.916 485.548,-256.757"/>
</g>
<!-- treasure -->
<g id="node8" class="node"><title>treasure</title>
<ellipse fill="none" stroke="black" cx="1341.14" cy="-522" rx="38.9931" ry="18"/>
<text text-anchor="middle" x="1341.14" y="-518.3" font-family="Times New Roman,serif" font-size="14.00">treasure</text>
</g>
<!-- wealth -->
<g id="node13" class="node"><title>wealth</title>
<ellipse fill="none" stroke="black" cx="1341.14" cy="-450" rx="33.5952" ry="18"/>
<text text-anchor="middle" x="1341.14" y="-446.3" font-family="Times New Roman,serif" font-size="14.00">wealth</text>
</g>
<!-- treasure&#45;&gt;wealth -->
<g id="edge73" class="edge"><title>treasure&#45;&gt;wealth</title>
<path fill="none" stroke="black" d="M1341.14,-503.697C1341.14,-495.983 1341.14,-486.712 1341.14,-478.112"/>
<polygon fill="black" stroke="black" points="1344.64,-478.104 1341.14,-468.104 1337.64,-478.104 1344.64,-478.104"/>
</g>
<!-- toolshed -->
<g id="node9" class="node"><title>toolshed</title>
<ellipse fill="none" stroke="black" cx="430.144" cy="-666" rx="42.4939" ry="18"/>
<text text-anchor="middle" x="430.144" y="-662.3" font-family="Times New Roman,serif" font-size="14.00">toolshed</text>
</g>
<!-- toolshed&#45;&gt;shed -->
<g id="edge4" class="edge"><title>toolshed&#45;&gt;shed</title>
<path fill="none" stroke="black" d="M430.144,-647.697C430.144,-639.983 430.144,-630.712 430.144,-622.112"/>
<polygon fill="black" stroke="black" points="433.644,-622.104 430.144,-612.104 426.644,-622.104 433.644,-622.104"/>
</g>
<!-- shears -->
<g id="node10" class="node"><title>shears</title>
<ellipse fill="none" stroke="black" cx="782.144" cy="-882" rx="33.5952" ry="18"/>
<text text-anchor="middle" x="782.144" y="-878.3" font-family="Times New Roman,serif" font-size="14.00">shears</text>
</g>
<!-- scissors -->
<g id="node24" class="node"><title>scissors</title>
<ellipse fill="none" stroke="black" cx="782.144" cy="-810" rx="40.0939" ry="18"/>
<text text-anchor="middle" x="782.144" y="-806.3" font-family="Times New Roman,serif" font-size="14.00">scissors</text>
</g>
<!-- shears&#45;&gt;scissors -->
<g id="edge50" class="edge"><title>shears&#45;&gt;scissors</title>
<path fill="none" stroke="black" d="M782.144,-863.697C782.144,-855.983 782.144,-846.712 782.144,-838.112"/>
<polygon fill="black" stroke="black" points="785.644,-838.104 782.144,-828.104 778.644,-838.104 785.644,-838.104"/>
</g>
<!-- physical_entity -->
<g id="node11" class="node"><title>physical_entity</title>
<ellipse fill="none" stroke="black" cx="694.144" cy="-90" rx="64.9885" ry="18"/>
<text text-anchor="middle" x="694.144" y="-86.3" font-family="Times New Roman,serif" font-size="14.00">physical_entity</text>
</g>
<!-- entity -->
<g id="node12" class="node"><title>entity</title>
<ellipse fill="none" stroke="black" cx="844.144" cy="-18" rx="30.5947" ry="18"/>
<text text-anchor="middle" x="844.144" y="-14.3" font-family="Times New Roman,serif" font-size="14.00">entity</text>
</g>
<!-- physical_entity&#45;&gt;entity -->
<g id="edge5" class="edge"><title>physical_entity&#45;&gt;entity</title>
<path fill="none" stroke="black" d="M725.955,-74.1548C751.119,-62.4113 786.124,-46.0757 811.502,-34.2327"/>
<polygon fill="black" stroke="black" points="813.135,-37.3332 820.716,-29.9327 810.174,-30.99 813.135,-37.3332"/>
</g>
<!-- material_resource -->
<g id="node59" class="node"><title>material_resource</title>
<ellipse fill="none" stroke="black" cx="1341.14" cy="-378" rx="74.9875" ry="18"/>
<text text-anchor="middle" x="1341.14" y="-374.3" font-family="Times New Roman,serif" font-size="14.00">material_resource</text>
</g>
<!-- wealth&#45;&gt;material_resource -->
<g id="edge67" class="edge"><title>wealth&#45;&gt;material_resource</title>
<path fill="none" stroke="black" d="M1341.14,-431.697C1341.14,-423.983 1341.14,-414.712 1341.14,-406.112"/>
<polygon fill="black" stroke="black" points="1344.64,-406.104 1341.14,-396.104 1337.64,-406.104 1344.64,-406.104"/>
</g>
<!-- abstraction -->
<g id="node14" class="node"><title>abstraction</title>
<ellipse fill="none" stroke="black" cx="995.144" cy="-90" rx="50.8918" ry="18"/>
<text text-anchor="middle" x="995.144" y="-86.3" font-family="Times New Roman,serif" font-size="14.00">abstraction</text>
</g>
<!-- abstraction&#45;&gt;entity -->
<g id="edge6" class="edge"><title>abstraction&#45;&gt;entity</title>
<path fill="none" stroke="black" d="M965.671,-75.3371C940.14,-63.5015 903.254,-46.402 876.825,-34.1502"/>
<polygon fill="black" stroke="black" points="878.146,-30.905 867.601,-29.8745 875.202,-37.2557 878.146,-30.905"/>
</g>
<!-- gold -->
<g id="node15" class="node"><title>gold</title>
<ellipse fill="none" stroke="black" cx="1341.14" cy="-738" rx="27" ry="18"/>
<text text-anchor="middle" x="1341.14" y="-734.3" font-family="Times New Roman,serif" font-size="14.00">gold</text>
</g>
<!-- precious_metal -->
<g id="node68" class="node"><title>precious_metal</title>
<ellipse fill="none" stroke="black" cx="1341.14" cy="-666" rx="65.7887" ry="18"/>
<text text-anchor="middle" x="1341.14" y="-662.3" font-family="Times New Roman,serif" font-size="14.00">precious_metal</text>
</g>
<!-- gold&#45;&gt;precious_metal -->
<g id="edge69" class="edge"><title>gold&#45;&gt;precious_metal</title>
<path fill="none" stroke="black" d="M1341.14,-719.697C1341.14,-711.983 1341.14,-702.712 1341.14,-694.112"/>
<polygon fill="black" stroke="black" points="1344.64,-694.104 1341.14,-684.104 1337.64,-694.104 1344.64,-694.104"/>
</g>
<!-- instrumentality -->
<g id="node16" class="node"><title>instrumentality</title>
<ellipse fill="none" stroke="black" cx="833.144" cy="-378" rx="63.0888" ry="18"/>
<text text-anchor="middle" x="833.144" y="-374.3" font-family="Times New Roman,serif" font-size="14.00">instrumentality</text>
</g>
<!-- instrumentality&#45;&gt;artifact -->
<g id="edge7" class="edge"><title>instrumentality&#45;&gt;artifact</title>
<path fill="none" stroke="black" d="M775.511,-370.603C684.393,-360.218 511.24,-339.315 451.144,-324 448.336,-323.285 445.464,-322.451 442.595,-321.544"/>
<polygon fill="black" stroke="black" points="443.551,-318.172 432.957,-318.246 441.285,-324.795 443.551,-318.172"/>
</g>
<!-- edge_tool -->
<g id="node17" class="node"><title>edge_tool</title>
<ellipse fill="none" stroke="black" cx="893.144" cy="-738" rx="46.5926" ry="18"/>
<text text-anchor="middle" x="893.144" y="-734.3" font-family="Times New Roman,serif" font-size="14.00">edge_tool</text>
</g>
<!-- cutter -->
<g id="node54" class="node"><title>cutter</title>
<ellipse fill="none" stroke="black" cx="888.144" cy="-666" rx="31.3957" ry="18"/>
<text text-anchor="middle" x="888.144" y="-662.3" font-family="Times New Roman,serif" font-size="14.00">cutter</text>
</g>
<!-- edge_tool&#45;&gt;cutter -->
<g id="edge72" class="edge"><title>edge_tool&#45;&gt;cutter</title>
<path fill="none" stroke="black" d="M891.908,-719.697C891.357,-711.983 890.694,-702.712 890.08,-694.112"/>
<polygon fill="black" stroke="black" points="893.569,-693.83 889.365,-684.104 886.587,-694.328 893.569,-693.83"/>
</g>
<!-- cutting_implement -->
<g id="node18" class="node"><title>cutting_implement</title>
<ellipse fill="none" stroke="black" cx="883.144" cy="-594" rx="77.1866" ry="18"/>
<text text-anchor="middle" x="883.144" y="-590.3" font-family="Times New Roman,serif" font-size="14.00">cutting_implement</text>
</g>
<!-- tool -->
<g id="node19" class="node"><title>tool</title>
<ellipse fill="none" stroke="black" cx="883.144" cy="-522" rx="27" ry="18"/>
<text text-anchor="middle" x="883.144" y="-518.3" font-family="Times New Roman,serif" font-size="14.00">tool</text>
</g>
<!-- cutting_implement&#45;&gt;tool -->
<g id="edge8" class="edge"><title>cutting_implement&#45;&gt;tool</title>
<path fill="none" stroke="black" d="M883.144,-575.697C883.144,-567.983 883.144,-558.712 883.144,-550.112"/>
<polygon fill="black" stroke="black" points="886.644,-550.104 883.144,-540.104 879.644,-550.104 886.644,-550.104"/>
</g>
<!-- implement -->
<g id="node35" class="node"><title>implement</title>
<ellipse fill="none" stroke="black" cx="833.144" cy="-450" rx="48.1917" ry="18"/>
<text text-anchor="middle" x="833.144" y="-446.3" font-family="Times New Roman,serif" font-size="14.00">implement</text>
</g>
<!-- tool&#45;&gt;implement -->
<g id="edge34" class="edge"><title>tool&#45;&gt;implement</title>
<path fill="none" stroke="black" d="M872.047,-505.465C865.816,-496.742 857.896,-485.654 850.831,-475.762"/>
<polygon fill="black" stroke="black" points="853.566,-473.57 844.906,-467.467 847.87,-477.639 853.566,-473.57"/>
</g>
<!-- bedroom_furniture -->
<g id="node20" class="node"><title>bedroom_furniture</title>
<ellipse fill="none" stroke="black" cx="1131.14" cy="-594" rx="79.0865" ry="18"/>
<text text-anchor="middle" x="1131.14" y="-590.3" font-family="Times New Roman,serif" font-size="14.00">bedroom_furniture</text>
</g>
<!-- furniture -->
<g id="node37" class="node"><title>furniture</title>
<ellipse fill="none" stroke="black" cx="999.144" cy="-522" rx="40.8928" ry="18"/>
<text text-anchor="middle" x="999.144" y="-518.3" font-family="Times New Roman,serif" font-size="14.00">furniture</text>
</g>
<!-- bedroom_furniture&#45;&gt;furniture -->
<g id="edge59" class="edge"><title>bedroom_furniture&#45;&gt;furniture</title>
<path fill="none" stroke="black" d="M1101.52,-577.291C1081.26,-566.546 1054.35,-552.274 1033.2,-541.06"/>
<polygon fill="black" stroke="black" points="1034.7,-537.896 1024.23,-536.304 1031.43,-544.081 1034.7,-537.896"/>
</g>
<!-- material -->
<g id="node21" class="node"><title>material</title>
<ellipse fill="none" stroke="black" cx="1210.14" cy="-378" rx="38.1938" ry="18"/>
<text text-anchor="middle" x="1210.14" y="-374.3" font-family="Times New Roman,serif" font-size="14.00">material</text>
</g>
<!-- substance -->
<g id="node22" class="node"><title>substance</title>
<ellipse fill="none" stroke="black" cx="1079.14" cy="-306" rx="46.5926" ry="18"/>
<text text-anchor="middle" x="1079.14" y="-302.3" font-family="Times New Roman,serif" font-size="14.00">substance</text>
</g>
<!-- material&#45;&gt;substance -->
<g id="edge9" class="edge"><title>material&#45;&gt;substance</title>
<path fill="none" stroke="black" d="M1185.81,-363.998C1165.78,-353.295 1137.11,-337.976 1114.54,-325.915"/>
<polygon fill="black" stroke="black" points="1116.07,-322.761 1105.6,-321.135 1112.77,-328.935 1116.07,-322.761"/>
</g>
<!-- part -->
<g id="node39" class="node"><title>part</title>
<ellipse fill="none" stroke="black" cx="1079.14" cy="-234" rx="27" ry="18"/>
<text text-anchor="middle" x="1079.14" y="-230.3" font-family="Times New Roman,serif" font-size="14.00">part</text>
</g>
<!-- substance&#45;&gt;part -->
<g id="edge37" class="edge"><title>substance&#45;&gt;part</title>
<path fill="none" stroke="black" d="M1079.14,-287.697C1079.14,-279.983 1079.14,-270.712 1079.14,-262.112"/>
<polygon fill="black" stroke="black" points="1082.64,-262.104 1079.14,-252.104 1075.64,-262.104 1082.64,-262.104"/>
</g>
<!-- matter -->
<g id="node48" class="node"><title>matter</title>
<ellipse fill="none" stroke="black" cx="794.144" cy="-162" rx="33.2948" ry="18"/>
<text text-anchor="middle" x="794.144" y="-158.3" font-family="Times New Roman,serif" font-size="14.00">matter</text>
</g>
<!-- substance&#45;&gt;matter -->
<g id="edge56" class="edge"><title>substance&#45;&gt;matter</title>
<path fill="none" stroke="black" d="M1051.82,-291.384C999.135,-265.136 883.727,-207.635 826.976,-179.359"/>
<polygon fill="black" stroke="black" points="828.251,-176.083 817.739,-174.756 825.129,-182.349 828.251,-176.083"/>
</g>
<!-- creation -->
<g id="node23" class="node"><title>creation</title>
<ellipse fill="none" stroke="black" cx="274.144" cy="-378" rx="39.7935" ry="18"/>
<text text-anchor="middle" x="274.144" y="-374.3" font-family="Times New Roman,serif" font-size="14.00">creation</text>
</g>
<!-- creation&#45;&gt;artifact -->
<g id="edge52" class="edge"><title>creation&#45;&gt;artifact</title>
<path fill="none" stroke="black" d="M298.972,-363.834C319.976,-352.695 350.243,-336.644 373.259,-324.439"/>
<polygon fill="black" stroke="black" points="375.121,-327.413 382.316,-319.636 371.841,-321.229 375.121,-327.413"/>
</g>
<!-- scissors&#45;&gt;edge_tool -->
<g id="edge14" class="edge"><title>scissors&#45;&gt;edge_tool</title>
<path fill="none" stroke="black" d="M804.606,-794.834C820.829,-784.604 842.974,-770.639 861.058,-759.234"/>
<polygon fill="black" stroke="black" points="862.974,-762.164 869.565,-753.869 859.24,-756.243 862.974,-762.164"/>
</g>
<!-- compound_lever -->
<g id="node25" class="node"><title>compound_lever</title>
<ellipse fill="none" stroke="black" cx="756.144" cy="-738" rx="72.2875" ry="18"/>
<text text-anchor="middle" x="756.144" y="-734.3" font-family="Times New Roman,serif" font-size="14.00">compound_lever</text>
</g>
<!-- scissors&#45;&gt;compound_lever -->
<g id="edge10" class="edge"><title>scissors&#45;&gt;compound_lever</title>
<path fill="none" stroke="black" d="M775.85,-792.055C772.923,-784.176 769.373,-774.617 766.096,-765.794"/>
<polygon fill="black" stroke="black" points="769.323,-764.431 762.56,-756.275 762.761,-766.868 769.323,-764.431"/>
</g>
<!-- lever -->
<g id="node52" class="node"><title>lever</title>
<ellipse fill="none" stroke="black" cx="757.144" cy="-666" rx="27.8951" ry="18"/>
<text text-anchor="middle" x="757.144" y="-662.3" font-family="Times New Roman,serif" font-size="14.00">lever</text>
</g>
<!-- compound_lever&#45;&gt;lever -->
<g id="edge26" class="edge"><title>compound_lever&#45;&gt;lever</title>
<path fill="none" stroke="black" d="M756.391,-719.697C756.501,-711.983 756.633,-702.712 756.756,-694.112"/>
<polygon fill="black" stroke="black" points="760.256,-694.153 756.899,-684.104 753.257,-694.053 760.256,-694.153"/>
</g>
<!-- vascular_plant -->
<g id="node27" class="node"><title>vascular_plant</title>
<ellipse fill="none" stroke="black" cx="629.144" cy="-594" rx="63.0888" ry="18"/>
<text text-anchor="middle" x="629.144" y="-590.3" font-family="Times New Roman,serif" font-size="14.00">vascular_plant</text>
</g>
<!-- herb&#45;&gt;vascular_plant -->
<g id="edge11" class="edge"><title>herb&#45;&gt;vascular_plant</title>
<path fill="none" stroke="black" d="M619.291,-648.055C620.722,-640.346 622.453,-631.027 624.062,-622.364"/>
<polygon fill="black" stroke="black" points="627.55,-622.746 625.935,-612.275 620.668,-621.468 627.55,-622.746"/>
</g>
<!-- plant -->
<g id="node45" class="node"><title>plant</title>
<ellipse fill="none" stroke="black" cx="590.144" cy="-522" rx="28.6953" ry="18"/>
<text text-anchor="middle" x="590.144" y="-518.3" font-family="Times New Roman,serif" font-size="14.00">plant</text>
</g>
<!-- vascular_plant&#45;&gt;plant -->
<g id="edge51" class="edge"><title>vascular_plant&#45;&gt;plant</title>
<path fill="none" stroke="black" d="M619.703,-576.055C615.036,-567.679 609.312,-557.404 604.147,-548.134"/>
<polygon fill="black" stroke="black" points="607.153,-546.339 599.229,-539.307 601.039,-549.746 607.153,-546.339"/>
</g>
<!-- workbench -->
<g id="node28" class="node"><title>workbench</title>
<ellipse fill="none" stroke="black" cx="1009.14" cy="-738" rx="51.1914" ry="18"/>
<text text-anchor="middle" x="1009.14" y="-734.3" font-family="Times New Roman,serif" font-size="14.00">workbench</text>
</g>
<!-- worktable -->
<g id="node41" class="node"><title>worktable</title>
<ellipse fill="none" stroke="black" cx="1008.14" cy="-666" rx="46.2923" ry="18"/>
<text text-anchor="middle" x="1008.14" y="-662.3" font-family="Times New Roman,serif" font-size="14.00">worktable</text>
</g>
<!-- workbench&#45;&gt;worktable -->
<g id="edge19" class="edge"><title>workbench&#45;&gt;worktable</title>
<path fill="none" stroke="black" d="M1008.9,-719.697C1008.79,-711.983 1008.65,-702.712 1008.53,-694.112"/>
<polygon fill="black" stroke="black" points="1012.03,-694.053 1008.39,-684.104 1005.03,-694.153 1012.03,-694.053"/>
</g>
<!-- causal_agent -->
<g id="node29" class="node"><title>causal_agent</title>
<ellipse fill="none" stroke="black" cx="373.144" cy="-234" rx="57.3905" ry="18"/>
<text text-anchor="middle" x="373.144" y="-230.3" font-family="Times New Roman,serif" font-size="14.00">causal_agent</text>
</g>
<!-- causal_agent&#45;&gt;physical_entity -->
<g id="edge12" class="edge"><title>causal_agent&#45;&gt;physical_entity</title>
<path fill="none" stroke="black" d="M403.928,-218.731C442.437,-200.949 510.456,-169.761 569.144,-144 595.891,-132.259 626.035,-119.465 650.019,-109.389"/>
<polygon fill="black" stroke="black" points="651.688,-112.485 659.556,-105.389 648.981,-106.03 651.688,-112.485"/>
</g>
<!-- valuable -->
<g id="node30" class="node"><title>valuable</title>
<ellipse fill="none" stroke="black" cx="1341.14" cy="-594" rx="40.0939" ry="18"/>
<text text-anchor="middle" x="1341.14" y="-590.3" font-family="Times New Roman,serif" font-size="14.00">valuable</text>
</g>
<!-- valuable&#45;&gt;treasure -->
<g id="edge38" class="edge"><title>valuable&#45;&gt;treasure</title>
<path fill="none" stroke="black" d="M1341.14,-575.697C1341.14,-567.983 1341.14,-558.712 1341.14,-550.112"/>
<polygon fill="black" stroke="black" points="1344.64,-550.104 1341.14,-540.104 1337.64,-550.104 1344.64,-550.104"/>
</g>
<!-- furnishing -->
<g id="node31" class="node"><title>furnishing</title>
<ellipse fill="none" stroke="black" cx="945.144" cy="-450" rx="46.2923" ry="18"/>
<text text-anchor="middle" x="945.144" y="-446.3" font-family="Times New Roman,serif" font-size="14.00">furnishing</text>
</g>
<!-- furnishing&#45;&gt;instrumentality -->
<g id="edge13" class="edge"><title>furnishing&#45;&gt;instrumentality</title>
<path fill="none" stroke="black" d="M921.665,-434.326C905.824,-424.425 884.67,-411.204 867.014,-400.169"/>
<polygon fill="black" stroke="black" points="868.482,-396.959 858.147,-394.627 864.772,-402.895 868.482,-396.959"/>
</g>
<!-- relation -->
<g id="node32" class="node"><title>relation</title>
<ellipse fill="none" stroke="black" cx="1079.14" cy="-162" rx="37.0935" ry="18"/>
<text text-anchor="middle" x="1079.14" y="-158.3" font-family="Times New Roman,serif" font-size="14.00">relation</text>
</g>
<!-- relation&#45;&gt;abstraction -->
<g id="edge43" class="edge"><title>relation&#45;&gt;abstraction</title>
<path fill="none" stroke="black" d="M1061.33,-146.155C1049.84,-136.583 1034.7,-123.961 1021.79,-113.207"/>
<polygon fill="black" stroke="black" points="1024.02,-110.51 1014.1,-106.797 1019.54,-115.887 1024.02,-110.51"/>
</g>
<!-- building&#45;&gt;structure -->
<g id="edge47" class="edge"><title>building&#45;&gt;structure</title>
<path fill="none" stroke="black" d="M463.473,-437.125C491.015,-425.581 533.053,-407.96 563.624,-395.146"/>
<polygon fill="black" stroke="black" points="565.244,-398.262 573.114,-391.168 562.538,-391.806 565.244,-398.262"/>
</g>
<!-- stick -->
<g id="node34" class="node"><title>stick</title>
<ellipse fill="none" stroke="black" cx="772.144" cy="-522" rx="27.8951" ry="18"/>
<text text-anchor="middle" x="772.144" y="-518.3" font-family="Times New Roman,serif" font-size="14.00">stick</text>
</g>
<!-- stick&#45;&gt;implement -->
<g id="edge16" class="edge"><title>stick&#45;&gt;implement</title>
<path fill="none" stroke="black" d="M785.38,-505.811C793.121,-496.927 803.076,-485.504 811.892,-475.388"/>
<polygon fill="black" stroke="black" points="814.722,-477.466 818.654,-467.628 809.445,-472.868 814.722,-477.466"/>
</g>
<!-- implement&#45;&gt;instrumentality -->
<g id="edge29" class="edge"><title>implement&#45;&gt;instrumentality</title>
<path fill="none" stroke="black" d="M833.144,-431.697C833.144,-423.983 833.144,-414.712 833.144,-406.112"/>
<polygon fill="black" stroke="black" points="836.644,-406.104 833.144,-396.104 829.644,-406.104 836.644,-406.104"/>
</g>
<!-- ax -->
<g id="node36" class="node"><title>ax</title>
<ellipse fill="none" stroke="black" cx="893.144" cy="-810" rx="27" ry="18"/>
<text text-anchor="middle" x="893.144" y="-806.3" font-family="Times New Roman,serif" font-size="14.00">ax</text>
</g>
<!-- ax&#45;&gt;edge_tool -->
<g id="edge74" class="edge"><title>ax&#45;&gt;edge_tool</title>
<path fill="none" stroke="black" d="M893.144,-791.697C893.144,-783.983 893.144,-774.712 893.144,-766.112"/>
<polygon fill="black" stroke="black" points="896.644,-766.104 893.144,-756.104 889.644,-766.104 896.644,-766.104"/>
</g>
<!-- furniture&#45;&gt;furnishing -->
<g id="edge17" class="edge"><title>furniture&#45;&gt;furnishing</title>
<path fill="none" stroke="black" d="M986.619,-504.765C979.968,-496.143 971.653,-485.365 964.218,-475.727"/>
<polygon fill="black" stroke="black" points="966.854,-473.413 957.975,-467.633 961.312,-477.689 966.854,-473.413"/>
</g>
<!-- table -->
<g id="node38" class="node"><title>table</title>
<ellipse fill="none" stroke="black" cx="1006.14" cy="-594" rx="27.8951" ry="18"/>
<text text-anchor="middle" x="1006.14" y="-590.3" font-family="Times New Roman,serif" font-size="14.00">table</text>
</g>
<!-- table&#45;&gt;furniture -->
<g id="edge44" class="edge"><title>table&#45;&gt;furniture</title>
<path fill="none" stroke="black" d="M1004.41,-575.697C1003.64,-567.983 1002.71,-558.712 1001.85,-550.112"/>
<polygon fill="black" stroke="black" points="1005.33,-549.706 1000.85,-540.104 998.367,-550.403 1005.33,-549.706"/>
</g>
<!-- part&#45;&gt;relation -->
<g id="edge18" class="edge"><title>part&#45;&gt;relation</title>
<path fill="none" stroke="black" d="M1079.14,-215.697C1079.14,-207.983 1079.14,-198.712 1079.14,-190.112"/>
<polygon fill="black" stroke="black" points="1082.64,-190.104 1079.14,-180.104 1075.64,-190.104 1082.64,-190.104"/>
</g>
<!-- art -->
<g id="node40" class="node"><title>art</title>
<ellipse fill="none" stroke="black" cx="261.144" cy="-450" rx="27" ry="18"/>
<text text-anchor="middle" x="261.144" y="-446.3" font-family="Times New Roman,serif" font-size="14.00">art</text>
</g>
<!-- art&#45;&gt;creation -->
<g id="edge58" class="edge"><title>art&#45;&gt;creation</title>
<path fill="none" stroke="black" d="M264.291,-432.055C265.722,-424.346 267.453,-415.027 269.062,-406.364"/>
<polygon fill="black" stroke="black" points="272.55,-406.746 270.935,-396.275 265.668,-405.468 272.55,-406.746"/>
</g>
<!-- worktable&#45;&gt;table -->
<g id="edge32" class="edge"><title>worktable&#45;&gt;table</title>
<path fill="none" stroke="black" d="M1007.65,-647.697C1007.43,-639.983 1007.16,-630.712 1006.92,-622.112"/>
<polygon fill="black" stroke="black" points="1010.42,-622 1006.63,-612.104 1003.42,-622.2 1010.42,-622"/>
</g>
<!-- fabric -->
<g id="node42" class="node"><title>fabric</title>
<ellipse fill="none" stroke="black" cx="404.144" cy="-378" rx="31.6951" ry="18"/>
<text text-anchor="middle" x="404.144" y="-374.3" font-family="Times New Roman,serif" font-size="14.00">fabric</text>
</g>
<!-- fabric&#45;&gt;artifact -->
<g id="edge48" class="edge"><title>fabric&#45;&gt;artifact</title>
<path fill="none" stroke="black" d="M404.638,-359.697C404.858,-351.983 405.123,-342.712 405.369,-334.112"/>
<polygon fill="black" stroke="black" points="408.868,-334.2 405.655,-324.104 401.871,-334 408.868,-334.2"/>
</g>
<!-- object -->
<g id="node46" class="node"><title>object</title>
<ellipse fill="none" stroke="black" cx="611.144" cy="-162" rx="33.2948" ry="18"/>
<text text-anchor="middle" x="611.144" y="-158.3" font-family="Times New Roman,serif" font-size="14.00">object</text>
</g>
<!-- whole&#45;&gt;object -->
<g id="edge22" class="edge"><title>whole&#45;&gt;object</title>
<path fill="none" stroke="black" d="M531.703,-219.17C546.483,-208.72 566.967,-194.236 583.432,-182.594"/>
<polygon fill="black" stroke="black" points="585.481,-185.432 591.625,-176.801 581.439,-179.717 585.481,-185.432"/>
</g>
<!-- factory -->
<g id="node44" class="node"><title>factory</title>
<ellipse fill="none" stroke="black" cx="512.144" cy="-594" rx="36.2938" ry="18"/>
<text text-anchor="middle" x="512.144" y="-590.3" font-family="Times New Roman,serif" font-size="14.00">factory</text>
</g>
<!-- factory&#45;&gt;plant -->
<g id="edge21" class="edge"><title>factory&#45;&gt;plant</title>
<path fill="none" stroke="black" d="M529.068,-577.811C540.095,-567.916 554.631,-554.87 566.757,-543.988"/>
<polygon fill="black" stroke="black" points="569.21,-546.489 574.315,-537.205 564.535,-541.279 569.21,-546.489"/>
</g>
<!-- building_complex -->
<g id="node66" class="node"><title>building_complex</title>
<ellipse fill="none" stroke="black" cx="692.144" cy="-450" rx="75.2868" ry="18"/>
<text text-anchor="middle" x="692.144" y="-446.3" font-family="Times New Roman,serif" font-size="14.00">building_complex</text>
</g>
<!-- plant&#45;&gt;building_complex -->
<g id="edge66" class="edge"><title>plant&#45;&gt;building_complex</title>
<path fill="none" stroke="black" d="M608.852,-508.161C623.153,-498.347 643.208,-484.583 660.056,-473.021"/>
<polygon fill="black" stroke="black" points="662.262,-475.752 668.526,-467.208 658.301,-469.98 662.262,-475.752"/>
</g>
<!-- organism -->
<g id="node67" class="node"><title>organism</title>
<ellipse fill="none" stroke="black" cx="498.144" cy="-378" rx="44.393" ry="18"/>
<text text-anchor="middle" x="498.144" y="-374.3" font-family="Times New Roman,serif" font-size="14.00">organism</text>
</g>
<!-- plant&#45;&gt;organism -->
<g id="edge42" class="edge"><title>plant&#45;&gt;organism</title>
<path fill="none" stroke="black" d="M569.013,-509.56C553.812,-500.28 533.982,-485.832 522.144,-468 509.804,-449.412 503.786,-424.675 500.865,-405.998"/>
<polygon fill="black" stroke="black" points="504.329,-405.494 499.509,-396.059 497.393,-406.441 504.329,-405.494"/>
</g>
<!-- object&#45;&gt;physical_entity -->
<g id="edge65" class="edge"><title>object&#45;&gt;physical_entity</title>
<path fill="none" stroke="black" d="M628.341,-146.496C639.481,-137.101 654.228,-124.664 666.938,-113.945"/>
<polygon fill="black" stroke="black" points="669.549,-116.321 674.937,-107.198 665.036,-110.97 669.549,-116.321"/>
</g>
<!-- chemical_element -->
<g id="node47" class="node"><title>chemical_element</title>
<ellipse fill="none" stroke="black" cx="1079.14" cy="-378" rx="74.9875" ry="18"/>
<text text-anchor="middle" x="1079.14" y="-374.3" font-family="Times New Roman,serif" font-size="14.00">chemical_element</text>
</g>
<!-- chemical_element&#45;&gt;substance -->
<g id="edge23" class="edge"><title>chemical_element&#45;&gt;substance</title>
<path fill="none" stroke="black" d="M1079.14,-359.697C1079.14,-351.983 1079.14,-342.712 1079.14,-334.112"/>
<polygon fill="black" stroke="black" points="1082.64,-334.104 1079.14,-324.104 1075.64,-334.104 1082.64,-334.104"/>
</g>
<!-- matter&#45;&gt;physical_entity -->
<g id="edge24" class="edge"><title>matter&#45;&gt;physical_entity</title>
<path fill="none" stroke="black" d="M774.387,-147.17C760.459,-137.421 741.517,-124.161 725.534,-112.973"/>
<polygon fill="black" stroke="black" points="727.209,-109.873 717.009,-107.006 723.194,-115.608 727.209,-109.873"/>
</g>
<!-- metallic_element -->
<g id="node49" class="node"><title>metallic_element</title>
<ellipse fill="none" stroke="black" cx="1079.14" cy="-450" rx="70.3881" ry="18"/>
<text text-anchor="middle" x="1079.14" y="-446.3" font-family="Times New Roman,serif" font-size="14.00">metallic_element</text>
</g>
<!-- metallic_element&#45;&gt;chemical_element -->
<g id="edge40" class="edge"><title>metallic_element&#45;&gt;chemical_element</title>
<path fill="none" stroke="black" d="M1079.14,-431.697C1079.14,-423.983 1079.14,-414.712 1079.14,-406.112"/>
<polygon fill="black" stroke="black" points="1082.64,-406.104 1079.14,-396.104 1075.64,-406.104 1082.64,-406.104"/>
</g>
<!-- possession -->
<g id="node50" class="node"><title>possession</title>
<ellipse fill="none" stroke="black" cx="1216.14" cy="-234" rx="51.1914" ry="18"/>
<text text-anchor="middle" x="1216.14" y="-230.3" font-family="Times New Roman,serif" font-size="14.00">possession</text>
</g>
<!-- possession&#45;&gt;relation -->
<g id="edge25" class="edge"><title>possession&#45;&gt;relation</title>
<path fill="none" stroke="black" d="M1188.42,-218.834C1166.7,-207.739 1136.39,-192.252 1113.2,-180.402"/>
<polygon fill="black" stroke="black" points="1114.56,-177.166 1104.06,-175.732 1111.37,-183.399 1114.56,-177.166"/>
</g>
<!-- wood -->
<g id="node51" class="node"><title>wood</title>
<ellipse fill="none" stroke="black" cx="1228.14" cy="-522" rx="31.6951" ry="18"/>
<text text-anchor="middle" x="1228.14" y="-518.3" font-family="Times New Roman,serif" font-size="14.00">wood</text>
</g>
<!-- plant_material -->
<g id="node62" class="node"><title>plant_material</title>
<ellipse fill="none" stroke="black" cx="1228.14" cy="-450" rx="61.1893" ry="18"/>
<text text-anchor="middle" x="1228.14" y="-446.3" font-family="Times New Roman,serif" font-size="14.00">plant_material</text>
</g>
<!-- wood&#45;&gt;plant_material -->
<g id="edge39" class="edge"><title>wood&#45;&gt;plant_material</title>
<path fill="none" stroke="black" d="M1228.14,-503.697C1228.14,-495.983 1228.14,-486.712 1228.14,-478.112"/>
<polygon fill="black" stroke="black" points="1231.64,-478.104 1228.14,-468.104 1224.64,-478.104 1231.64,-478.104"/>
</g>
<!-- bar -->
<g id="node55" class="node"><title>bar</title>
<ellipse fill="none" stroke="black" cx="761.144" cy="-594" rx="27" ry="18"/>
<text text-anchor="middle" x="761.144" y="-590.3" font-family="Times New Roman,serif" font-size="14.00">bar</text>
</g>
<!-- lever&#45;&gt;bar -->
<g id="edge61" class="edge"><title>lever&#45;&gt;bar</title>
<path fill="none" stroke="black" d="M758.132,-647.697C758.573,-639.983 759.103,-630.712 759.594,-622.112"/>
<polygon fill="black" stroke="black" points="763.09,-622.288 760.166,-612.104 756.101,-621.888 763.09,-622.288"/>
</g>
<!-- gem -->
<g id="node53" class="node"><title>gem</title>
<ellipse fill="none" stroke="black" cx="255.144" cy="-522" rx="27" ry="18"/>
<text text-anchor="middle" x="255.144" y="-518.3" font-family="Times New Roman,serif" font-size="14.00">gem</text>
</g>
<!-- gem&#45;&gt;art -->
<g id="edge55" class="edge"><title>gem&#45;&gt;art</title>
<path fill="none" stroke="black" d="M256.627,-503.697C257.288,-495.983 258.083,-486.712 258.82,-478.112"/>
<polygon fill="black" stroke="black" points="262.311,-478.367 259.678,-468.104 255.336,-477.769 262.311,-478.367"/>
</g>
<!-- cutter&#45;&gt;cutting_implement -->
<g id="edge27" class="edge"><title>cutter&#45;&gt;cutting_implement</title>
<path fill="none" stroke="black" d="M886.908,-647.697C886.357,-639.983 885.694,-630.712 885.08,-622.112"/>
<polygon fill="black" stroke="black" points="888.569,-621.83 884.365,-612.104 881.587,-622.328 888.569,-621.83"/>
</g>
<!-- bar&#45;&gt;implement -->
<g id="edge30" class="edge"><title>bar&#45;&gt;implement</title>
<path fill="none" stroke="black" d="M777.105,-579.184C787.628,-569.263 800.935,-555.037 809.144,-540 819.656,-520.743 825.792,-496.587 829.224,-478.302"/>
<polygon fill="black" stroke="black" points="832.699,-478.745 830.945,-468.296 825.8,-477.558 832.699,-478.745"/>
</g>
<!-- iron -->
<g id="node56" class="node"><title>iron</title>
<ellipse fill="none" stroke="black" cx="1085.14" cy="-522" rx="27" ry="18"/>
<text text-anchor="middle" x="1085.14" y="-518.3" font-family="Times New Roman,serif" font-size="14.00">iron</text>
</g>
<!-- iron&#45;&gt;metallic_element -->
<g id="edge31" class="edge"><title>iron&#45;&gt;metallic_element</title>
<path fill="none" stroke="black" d="M1083.66,-503.697C1083,-495.983 1082.2,-486.712 1081.47,-478.112"/>
<polygon fill="black" stroke="black" points="1084.95,-477.769 1080.61,-468.104 1077.98,-478.367 1084.95,-477.769"/>
</g>
<!-- person -->
<g id="node57" class="node"><title>person</title>
<ellipse fill="none" stroke="black" cx="342.144" cy="-450" rx="35.9954" ry="18"/>
<text text-anchor="middle" x="342.144" y="-446.3" font-family="Times New Roman,serif" font-size="14.00">person</text>
</g>
<!-- person&#45;&gt;causal_agent -->
<g id="edge33" class="edge"><title>person&#45;&gt;causal_agent</title>
<path fill="none" stroke="black" d="M343.558,-431.995C346.139,-402.533 352.188,-340.15 361.144,-288 362.603,-279.501 364.55,-270.314 366.451,-262.014"/>
<polygon fill="black" stroke="black" points="369.901,-262.631 368.793,-252.094 363.089,-261.023 369.901,-262.631"/>
</g>
<!-- person&#45;&gt;organism -->
<g id="edge62" class="edge"><title>person&#45;&gt;organism</title>
<path fill="none" stroke="black" d="M367.904,-437.441C393.017,-426.172 431.502,-408.903 460.133,-396.056"/>
<polygon fill="black" stroke="black" points="461.741,-399.171 469.431,-391.884 458.875,-392.784 461.741,-399.171"/>
</g>
<!-- living_thing -->
<g id="node58" class="node"><title>living_thing</title>
<ellipse fill="none" stroke="black" cx="512.144" cy="-306" rx="51.9908" ry="18"/>
<text text-anchor="middle" x="512.144" y="-302.3" font-family="Times New Roman,serif" font-size="14.00">living_thing</text>
</g>
<!-- living_thing&#45;&gt;whole -->
<g id="edge70" class="edge"><title>living_thing&#45;&gt;whole</title>
<path fill="none" stroke="black" d="M512.144,-287.697C512.144,-279.983 512.144,-270.712 512.144,-262.112"/>
<polygon fill="black" stroke="black" points="515.644,-262.104 512.144,-252.104 508.644,-262.104 515.644,-262.104"/>
</g>
<!-- assets -->
<g id="node60" class="node"><title>assets</title>
<ellipse fill="none" stroke="black" cx="1258.14" cy="-306" rx="32.4942" ry="18"/>
<text text-anchor="middle" x="1258.14" y="-302.3" font-family="Times New Roman,serif" font-size="14.00">assets</text>
</g>
<!-- material_resource&#45;&gt;assets -->
<g id="edge35" class="edge"><title>material_resource&#45;&gt;assets</title>
<path fill="none" stroke="black" d="M1321.47,-360.411C1309.99,-350.727 1295.39,-338.414 1283.1,-328.051"/>
<polygon fill="black" stroke="black" points="1285.32,-325.342 1275.42,-321.57 1280.81,-330.693 1285.32,-325.342"/>
</g>
<!-- assets&#45;&gt;possession -->
<g id="edge60" class="edge"><title>assets&#45;&gt;possession</title>
<path fill="none" stroke="black" d="M1248.4,-288.765C1243.41,-280.44 1237.21,-270.104 1231.58,-260.725"/>
<polygon fill="black" stroke="black" points="1234.56,-258.898 1226.42,-252.124 1228.56,-262.5 1234.56,-258.898"/>
</g>
<!-- building_material -->
<g id="node61" class="node"><title>building_material</title>
<ellipse fill="none" stroke="black" cx="72.1436" cy="-378" rx="72.2875" ry="18"/>
<text text-anchor="middle" x="72.1436" y="-374.3" font-family="Times New Roman,serif" font-size="14.00">building_material</text>
</g>
<!-- building_material&#45;&gt;artifact -->
<g id="edge36" class="edge"><title>building_material&#45;&gt;artifact</title>
<path fill="none" stroke="black" d="M125.735,-365.75C134.879,-363.831 144.284,-361.858 153.144,-360 227.313,-344.448 313.718,-326.352 363.944,-315.835"/>
<polygon fill="black" stroke="black" points="364.723,-319.248 373.793,-313.773 363.288,-312.397 364.723,-319.248"/>
</g>
<!-- plant_material&#45;&gt;material -->
<g id="edge49" class="edge"><title>plant_material&#45;&gt;material</title>
<path fill="none" stroke="black" d="M1223.69,-431.697C1221.69,-423.898 1219.27,-414.509 1217.04,-405.829"/>
<polygon fill="black" stroke="black" points="1220.42,-404.918 1214.54,-396.104 1213.64,-406.661 1220.42,-404.918"/>
</g>
<!-- worker -->
<g id="node63" class="node"><title>worker</title>
<ellipse fill="none" stroke="black" cx="336.144" cy="-522" rx="36.2938" ry="18"/>
<text text-anchor="middle" x="336.144" y="-518.3" font-family="Times New Roman,serif" font-size="14.00">worker</text>
</g>
<!-- worker&#45;&gt;person -->
<g id="edge71" class="edge"><title>worker&#45;&gt;person</title>
<path fill="none" stroke="black" d="M337.627,-503.697C338.288,-495.983 339.083,-486.712 339.82,-478.112"/>
<polygon fill="black" stroke="black" points="343.311,-478.367 340.678,-468.104 336.336,-477.769 343.311,-478.367"/>
</g>
<!-- board -->
<g id="node64" class="node"><title>board</title>
<ellipse fill="none" stroke="black" cx="72.1436" cy="-522" rx="32.4942" ry="18"/>
<text text-anchor="middle" x="72.1436" y="-518.3" font-family="Times New Roman,serif" font-size="14.00">board</text>
</g>
<!-- lumber -->
<g id="node65" class="node"><title>lumber</title>
<ellipse fill="none" stroke="black" cx="72.1436" cy="-450" rx="35.9954" ry="18"/>
<text text-anchor="middle" x="72.1436" y="-446.3" font-family="Times New Roman,serif" font-size="14.00">lumber</text>
</g>
<!-- board&#45;&gt;lumber -->
<g id="edge41" class="edge"><title>board&#45;&gt;lumber</title>
<path fill="none" stroke="black" d="M72.1436,-503.697C72.1436,-495.983 72.1436,-486.712 72.1436,-478.112"/>
<polygon fill="black" stroke="black" points="75.6437,-478.104 72.1436,-468.104 68.6437,-478.104 75.6437,-478.104"/>
</g>
<!-- lumber&#45;&gt;building_material -->
<g id="edge64" class="edge"><title>lumber&#45;&gt;building_material</title>
<path fill="none" stroke="black" d="M72.1436,-431.697C72.1436,-423.983 72.1436,-414.712 72.1436,-406.112"/>
<polygon fill="black" stroke="black" points="75.6437,-406.104 72.1436,-396.104 68.6437,-406.104 75.6437,-406.104"/>
</g>
<!-- building_complex&#45;&gt;structure -->
<g id="edge54" class="edge"><title>building_complex&#45;&gt;structure</title>
<path fill="none" stroke="black" d="M670.815,-432.411C658.417,-422.769 642.669,-410.52 629.382,-400.185"/>
<polygon fill="black" stroke="black" points="631.521,-397.415 621.478,-394.038 627.223,-402.94 631.521,-397.415"/>
</g>
<!-- organism&#45;&gt;living_thing -->
<g id="edge57" class="edge"><title>organism&#45;&gt;living_thing</title>
<path fill="none" stroke="black" d="M501.604,-359.697C503.147,-351.983 505.001,-342.712 506.721,-334.112"/>
<polygon fill="black" stroke="black" points="510.194,-334.597 508.723,-324.104 503.329,-333.224 510.194,-334.597"/>
</g>
<!-- precious_metal&#45;&gt;valuable -->
<g id="edge45" class="edge"><title>precious_metal&#45;&gt;valuable</title>
<path fill="none" stroke="black" d="M1341.14,-647.697C1341.14,-639.983 1341.14,-630.712 1341.14,-622.112"/>
<polygon fill="black" stroke="black" points="1344.64,-622.104 1341.14,-612.104 1337.64,-622.104 1344.64,-622.104"/>
</g>
<!-- structure&#45;&gt;artifact -->
<g id="edge46" class="edge"><title>structure&#45;&gt;artifact</title>
<path fill="none" stroke="black" d="M570.251,-366.051C539.636,-355.483 492.128,-338.932 451.144,-324 448.584,-323.067 445.945,-322.096 443.29,-321.112"/>
<polygon fill="black" stroke="black" points="444.304,-317.754 433.711,-317.532 441.853,-324.311 444.304,-317.754"/>
</g>
<!-- bed -->
<g id="node70" class="node"><title>bed</title>
<ellipse fill="none" stroke="black" cx="1131.14" cy="-666" rx="27" ry="18"/>
<text text-anchor="middle" x="1131.14" y="-662.3" font-family="Times New Roman,serif" font-size="14.00">bed</text>
</g>
<!-- bed&#45;&gt;bedroom_furniture -->
<g id="edge53" class="edge"><title>bed&#45;&gt;bedroom_furniture</title>
<path fill="none" stroke="black" d="M1131.14,-647.697C1131.14,-639.983 1131.14,-630.712 1131.14,-622.112"/>
<polygon fill="black" stroke="black" points="1134.64,-622.104 1131.14,-612.104 1127.64,-622.104 1134.64,-622.104"/>
</g>
<!-- rope -->
<g id="node71" class="node"><title>rope</title>
<ellipse fill="none" stroke="black" cx="189.144" cy="-450" rx="27.0966" ry="18"/>
<text text-anchor="middle" x="189.144" y="-446.3" font-family="Times New Roman,serif" font-size="14.00">rope</text>
</g>
<!-- rope&#45;&gt;line -->
<g id="edge68" class="edge"><title>rope&#45;&gt;line</title>
<path fill="none" stroke="black" d="M189.144,-431.697C189.144,-423.983 189.144,-414.712 189.144,-406.112"/>
<polygon fill="black" stroke="black" points="192.644,-406.104 189.144,-396.104 185.644,-406.104 192.644,-406.104"/>
</g>
</g>
</svg>
