<?xml version="1.0" encoding="UTF-8" standalone="no"?>
<!DOCTYPE svg PUBLIC "-//W3C//DTD SVG 1.1//EN"
 "http://www.w3.org/Graphics/SVG/1.1/DTD/svg11.dtd">
<!-- Generated by graphviz version 2.38.0 (20140413.2041)
 -->
<!-- Title: G Pages: 1 -->
<svg width="790pt" height="620pt"
 viewBox="0.00 0.00 789.54 620.00" xmlns="http://www.w3.org/2000/svg" xmlns:xlink="http://www.w3.org/1999/xlink">
<g id="graph0" class="graph" transform="scale(1 1) rotate(0) translate(4 616)">
<title>G</title>
<polygon fill="white" stroke="none" points="-4,4 -4,-616 785.54,-616 785.54,4 -4,4"/>
<!-- plant -->
<g id="node1" class="node"><title>plant</title>
<ellipse fill="none" stroke="black" cx="119.397" cy="-234" rx="28.6953" ry="18"/>
<text text-anchor="middle" x="119.397" y="-230.3" font-family="Times New Roman,serif" font-size="14.00">plant</text>
</g>
<!-- structure -->
<g id="node2" class="node"><title>structure</title>
<ellipse fill="none" stroke="black" cx="206.397" cy="-306" rx="42.4939" ry="18"/>
<text text-anchor="middle" x="206.397" y="-302.3" font-family="Times New Roman,serif" font-size="14.00">structure</text>
</g>
<!-- plant&#45;&gt;structure -->
<g id="edge1" class="edge"><title>plant&#45;&gt;structure</title>
<path fill="none" stroke="black" d="M136.585,-248.83C148.838,-258.689 165.553,-272.137 179.555,-283.403"/>
<polygon fill="black" stroke="black" points="177.447,-286.199 187.432,-289.741 181.835,-280.745 177.447,-286.199"/>
</g>
<!-- organism -->
<g id="node17" class="node"><title>organism</title>
<ellipse fill="none" stroke="black" cx="132.397" cy="-378" rx="44.393" ry="18"/>
<text text-anchor="middle" x="132.397" y="-374.3" font-family="Times New Roman,serif" font-size="14.00">organism</text>
</g>
<!-- plant&#45;&gt;organism -->
<g id="edge19" class="edge"><title>plant&#45;&gt;organism</title>
<path fill="none" stroke="black" d="M120.965,-252.129C123.18,-276.33 127.251,-320.789 129.889,-349.607"/>
<polygon fill="black" stroke="black" points="126.426,-350.171 130.823,-359.811 133.397,-349.533 126.426,-350.171"/>
</g>
<!-- artifact -->
<g id="node8" class="node"><title>artifact</title>
<ellipse fill="none" stroke="black" cx="348.397" cy="-378" rx="35.9954" ry="18"/>
<text text-anchor="middle" x="348.397" y="-374.3" font-family="Times New Roman,serif" font-size="14.00">artifact</text>
</g>
<!-- structure&#45;&gt;artifact -->
<g id="edge22" class="edge"><title>structure&#45;&gt;artifact</title>
<path fill="none" stroke="black" d="M233.106,-320.166C256.187,-331.545 289.666,-348.048 314.607,-360.343"/>
<polygon fill="black" stroke="black" points="313.191,-363.547 323.708,-364.829 316.286,-357.269 313.191,-363.547"/>
</g>
<!-- physical_entity -->
<g id="node3" class="node"><title>physical_entity</title>
<ellipse fill="none" stroke="black" cx="325.397" cy="-522" rx="64.9885" ry="18"/>
<text text-anchor="middle" x="325.397" y="-518.3" font-family="Times New Roman,serif" font-size="14.00">physical_entity</text>
</g>
<!-- entity -->
<g id="node4" class="node"><title>entity</title>
<ellipse fill="none" stroke="black" cx="385.397" cy="-594" rx="30.5947" ry="18"/>
<text text-anchor="middle" x="385.397" y="-590.3" font-family="Times New Roman,serif" font-size="14.00">entity</text>
</g>
<!-- physical_entity&#45;&gt;entity -->
<g id="edge2" class="edge"><title>physical_entity&#45;&gt;entity</title>
<path fill="none" stroke="black" d="M339.616,-539.589C347.305,-548.559 356.927,-559.785 365.363,-569.627"/>
<polygon fill="black" stroke="black" points="362.936,-572.174 372.102,-577.489 368.251,-567.619 362.936,-572.174"/>
</g>
<!-- workbench -->
<g id="node5" class="node"><title>workbench</title>
<ellipse fill="none" stroke="black" cx="606.397" cy="-162" rx="51.1914" ry="18"/>
<text text-anchor="middle" x="606.397" y="-158.3" font-family="Times New Roman,serif" font-size="14.00">workbench</text>
</g>
<!-- furniture -->
<g id="node6" class="node"><title>furniture</title>
<ellipse fill="none" stroke="black" cx="510.397" cy="-234" rx="40.8928" ry="18"/>
<text text-anchor="middle" x="510.397" y="-230.3" font-family="Times New Roman,serif" font-size="14.00">furniture</text>
</g>
<!-- workbench&#45;&gt;furniture -->
<g id="edge3" class="edge"><title>workbench&#45;&gt;furniture</title>
<path fill="none" stroke="black" d="M585.091,-178.535C571.515,-188.434 553.762,-201.379 538.97,-212.165"/>
<polygon fill="black" stroke="black" points="536.675,-209.507 530.657,-218.227 540.799,-215.163 536.675,-209.507"/>
</g>
<!-- instrumentality -->
<g id="node7" class="node"><title>instrumentality</title>
<ellipse fill="none" stroke="black" cx="402.397" cy="-306" rx="63.0888" ry="18"/>
<text text-anchor="middle" x="402.397" y="-302.3" font-family="Times New Roman,serif" font-size="14.00">instrumentality</text>
</g>
<!-- furniture&#45;&gt;instrumentality -->
<g id="edge26" class="edge"><title>furniture&#45;&gt;instrumentality</title>
<path fill="none" stroke="black" d="M488.281,-249.334C473.041,-259.212 452.522,-272.512 435.362,-283.634"/>
<polygon fill="black" stroke="black" points="433.228,-280.846 426.74,-289.222 437.036,-286.72 433.228,-280.846"/>
</g>
<!-- instrumentality&#45;&gt;artifact -->
<g id="edge4" class="edge"><title>instrumentality&#45;&gt;artifact</title>
<path fill="none" stroke="black" d="M389.325,-323.945C382.662,-332.582 374.44,-343.24 367.118,-352.732"/>
<polygon fill="black" stroke="black" points="364.313,-350.637 360.976,-360.693 369.856,-354.913 364.313,-350.637"/>
</g>
<!-- whole -->
<g id="node13" class="node"><title>whole</title>
<ellipse fill="none" stroke="black" cx="325.397" cy="-450" rx="32.4942" ry="18"/>
<text text-anchor="middle" x="325.397" y="-446.3" font-family="Times New Roman,serif" font-size="14.00">whole</text>
</g>
<!-- artifact&#45;&gt;whole -->
<g id="edge7" class="edge"><title>artifact&#45;&gt;whole</title>
<path fill="none" stroke="black" d="M342.829,-395.945C340.202,-403.941 337.005,-413.669 334.071,-422.6"/>
<polygon fill="black" stroke="black" points="330.71,-421.618 330.913,-432.211 337.36,-423.803 330.71,-421.618"/>
</g>
<!-- substance -->
<g id="node9" class="node"><title>substance</title>
<ellipse fill="none" stroke="black" cx="434.397" cy="-450" rx="46.5926" ry="18"/>
<text text-anchor="middle" x="434.397" y="-446.3" font-family="Times New Roman,serif" font-size="14.00">substance</text>
</g>
<!-- substance&#45;&gt;physical_entity -->
<g id="edge21" class="edge"><title>substance&#45;&gt;physical_entity</title>
<path fill="none" stroke="black" d="M411.281,-465.845C395.954,-475.688 375.605,-488.756 358.562,-499.701"/>
<polygon fill="black" stroke="black" points="356.517,-496.855 349.994,-505.203 360.3,-502.745 356.517,-496.855"/>
</g>
<!-- relation -->
<g id="node10" class="node"><title>relation</title>
<ellipse fill="none" stroke="black" cx="445.397" cy="-522" rx="37.0935" ry="18"/>
<text text-anchor="middle" x="445.397" y="-518.3" font-family="Times New Roman,serif" font-size="14.00">relation</text>
</g>
<!-- substance&#45;&gt;relation -->
<g id="edge5" class="edge"><title>substance&#45;&gt;relation</title>
<path fill="none" stroke="black" d="M437.116,-468.303C438.328,-476.017 439.785,-485.288 441.136,-493.888"/>
<polygon fill="black" stroke="black" points="437.699,-494.56 442.709,-503.896 444.614,-493.474 437.699,-494.56"/>
</g>
<!-- relation&#45;&gt;entity -->
<g id="edge35" class="edge"><title>relation&#45;&gt;entity</title>
<path fill="none" stroke="black" d="M431.782,-538.884C423.925,-548.051 413.904,-559.741 405.189,-569.909"/>
<polygon fill="black" stroke="black" points="402.396,-567.789 398.545,-577.66 407.711,-572.345 402.396,-567.789"/>
</g>
<!-- scissors -->
<g id="node11" class="node"><title>scissors</title>
<ellipse fill="none" stroke="black" cx="269.397" cy="-90" rx="40.0939" ry="18"/>
<text text-anchor="middle" x="269.397" y="-86.3" font-family="Times New Roman,serif" font-size="14.00">scissors</text>
</g>
<!-- edge_tool -->
<g id="node12" class="node"><title>edge_tool</title>
<ellipse fill="none" stroke="black" cx="344.397" cy="-162" rx="46.5926" ry="18"/>
<text text-anchor="middle" x="344.397" y="-158.3" font-family="Times New Roman,serif" font-size="14.00">edge_tool</text>
</g>
<!-- scissors&#45;&gt;edge_tool -->
<g id="edge6" class="edge"><title>scissors&#45;&gt;edge_tool</title>
<path fill="none" stroke="black" d="M286.042,-106.535C296,-115.83 308.835,-127.809 319.931,-138.165"/>
<polygon fill="black" stroke="black" points="317.58,-140.758 327.278,-145.023 322.356,-135.641 317.58,-140.758"/>
</g>
<!-- implement -->
<g id="node15" class="node"><title>implement</title>
<ellipse fill="none" stroke="black" cx="402.397" cy="-234" rx="48.1917" ry="18"/>
<text text-anchor="middle" x="402.397" y="-230.3" font-family="Times New Roman,serif" font-size="14.00">implement</text>
</g>
<!-- scissors&#45;&gt;implement -->
<g id="edge27" class="edge"><title>scissors&#45;&gt;implement</title>
<path fill="none" stroke="black" d="M268.726,-108.31C268.876,-127.78 271.951,-159.367 288.397,-180 297.889,-191.909 330.907,-206.583 358.981,-217.469"/>
<polygon fill="black" stroke="black" points="358.068,-220.866 368.659,-221.151 360.557,-214.323 358.068,-220.866"/>
</g>
<!-- edge_tool&#45;&gt;implement -->
<g id="edge9" class="edge"><title>edge_tool&#45;&gt;implement</title>
<path fill="none" stroke="black" d="M358.142,-179.589C365.365,-188.307 374.353,-199.155 382.339,-208.792"/>
<polygon fill="black" stroke="black" points="379.675,-211.063 388.75,-216.53 385.065,-206.597 379.675,-211.063"/>
</g>
<!-- whole&#45;&gt;physical_entity -->
<g id="edge13" class="edge"><title>whole&#45;&gt;physical_entity</title>
<path fill="none" stroke="black" d="M325.397,-468.303C325.397,-476.017 325.397,-485.288 325.397,-493.888"/>
<polygon fill="black" stroke="black" points="321.897,-493.896 325.397,-503.896 328.897,-493.896 321.897,-493.896"/>
</g>
<!-- factory -->
<g id="node14" class="node"><title>factory</title>
<ellipse fill="none" stroke="black" cx="77.3968" cy="-162" rx="36.2938" ry="18"/>
<text text-anchor="middle" x="77.3968" y="-158.3" font-family="Times New Roman,serif" font-size="14.00">factory</text>
</g>
<!-- factory&#45;&gt;plant -->
<g id="edge8" class="edge"><title>factory&#45;&gt;plant</title>
<path fill="none" stroke="black" d="M87.3502,-179.589C92.4974,-188.168 98.8823,-198.809 104.595,-208.33"/>
<polygon fill="black" stroke="black" points="101.658,-210.238 109.804,-217.012 107.66,-206.636 101.658,-210.238"/>
</g>
<!-- implement&#45;&gt;instrumentality -->
<g id="edge12" class="edge"><title>implement&#45;&gt;instrumentality</title>
<path fill="none" stroke="black" d="M402.397,-252.303C402.397,-260.017 402.397,-269.288 402.397,-277.888"/>
<polygon fill="black" stroke="black" points="398.897,-277.896 402.397,-287.896 405.897,-277.896 398.897,-277.896"/>
</g>
<!-- person -->
<g id="node16" class="node"><title>person</title>
<ellipse fill="none" stroke="black" cx="60.3968" cy="-306" rx="35.9954" ry="18"/>
<text text-anchor="middle" x="60.3968" y="-302.3" font-family="Times New Roman,serif" font-size="14.00">person</text>
</g>
<!-- person&#45;&gt;physical_entity -->
<g id="edge10" class="edge"><title>person&#45;&gt;physical_entity</title>
<path fill="none" stroke="black" d="M59.8576,-324.207C60.1284,-343.582 63.3136,-375.083 79.3968,-396 126.089,-456.725 210.426,-490.358 267.164,-507.052"/>
<polygon fill="black" stroke="black" points="266.495,-510.501 277.072,-509.878 268.416,-503.769 266.495,-510.501"/>
</g>
<!-- person&#45;&gt;organism -->
<g id="edge29" class="edge"><title>person&#45;&gt;organism</title>
<path fill="none" stroke="black" d="M76.3759,-322.535C85.8438,-331.74 98.0206,-343.579 108.602,-353.866"/>
<polygon fill="black" stroke="black" points="106.353,-356.562 115.963,-361.023 111.233,-351.543 106.353,-356.562"/>
</g>
<!-- organism&#45;&gt;whole -->
<g id="edge11" class="edge"><title>organism&#45;&gt;whole</title>
<path fill="none" stroke="black" d="M164.267,-390.559C198.715,-403.053 253.499,-422.923 289.456,-435.965"/>
<polygon fill="black" stroke="black" points="288.472,-439.331 299.066,-439.45 290.859,-432.75 288.472,-439.331"/>
</g>
<!-- rope -->
<g id="node18" class="node"><title>rope</title>
<ellipse fill="none" stroke="black" cx="294.397" cy="-306" rx="27.0966" ry="18"/>
<text text-anchor="middle" x="294.397" y="-302.3" font-family="Times New Roman,serif" font-size="14.00">rope</text>
</g>
<!-- rope&#45;&gt;artifact -->
<g id="edge14" class="edge"><title>rope&#45;&gt;artifact</title>
<path fill="none" stroke="black" d="M306.381,-322.535C313.275,-331.472 322.084,-342.891 329.854,-352.963"/>
<polygon fill="black" stroke="black" points="327.192,-355.243 336.072,-361.023 332.735,-350.967 327.192,-355.243"/>
</g>
<!-- grass -->
<g id="node19" class="node"><title>grass</title>
<ellipse fill="none" stroke="black" cx="161.397" cy="-162" rx="29.795" ry="18"/>
<text text-anchor="middle" x="161.397" y="-158.3" font-family="Times New Roman,serif" font-size="14.00">grass</text>
</g>
<!-- grass&#45;&gt;plant -->
<g id="edge15" class="edge"><title>grass&#45;&gt;plant</title>
<path fill="none" stroke="black" d="M151.656,-179.235C146.514,-187.805 140.093,-198.506 134.337,-208.1"/>
<polygon fill="black" stroke="black" points="131.229,-206.477 129.085,-216.853 137.231,-210.079 131.229,-206.477"/>
</g>
<!-- building_material -->
<g id="node20" class="node"><title>building_material</title>
<ellipse fill="none" stroke="black" cx="709.397" cy="-306" rx="72.2875" ry="18"/>
<text text-anchor="middle" x="709.397" y="-302.3" font-family="Times New Roman,serif" font-size="14.00">building_material</text>
</g>
<!-- building_material&#45;&gt;artifact -->
<g id="edge16" class="edge"><title>building_material&#45;&gt;artifact</title>
<path fill="none" stroke="black" d="M656.757,-318.485C647.332,-320.417 637.587,-322.333 628.397,-324 524.43,-342.859 495.6,-333.183 393.397,-360 390.595,-360.735 387.726,-361.583 384.86,-362.5"/>
<polygon fill="black" stroke="black" points="383.541,-359.252 375.226,-365.819 385.821,-365.871 383.541,-359.252"/>
</g>
<!-- iron -->
<g id="node21" class="node"><title>iron</title>
<ellipse fill="none" stroke="black" cx="511.397" cy="-378" rx="27" ry="18"/>
<text text-anchor="middle" x="511.397" y="-374.3" font-family="Times New Roman,serif" font-size="14.00">iron</text>
</g>
<!-- iron&#45;&gt;substance -->
<g id="edge17" class="edge"><title>iron&#45;&gt;substance</title>
<path fill="none" stroke="black" d="M495.815,-393.166C485.361,-402.669 471.362,-415.395 459.37,-426.297"/>
<polygon fill="black" stroke="black" points="456.881,-423.829 451.836,-433.146 461.59,-429.009 456.881,-423.829"/>
</g>
<!-- bed -->
<g id="node22" class="node"><title>bed</title>
<ellipse fill="none" stroke="black" cx="510.397" cy="-162" rx="27" ry="18"/>
<text text-anchor="middle" x="510.397" y="-158.3" font-family="Times New Roman,serif" font-size="14.00">bed</text>
</g>
<!-- bed&#45;&gt;furniture -->
<g id="edge18" class="edge"><title>bed&#45;&gt;furniture</title>
<path fill="none" stroke="black" d="M510.397,-180.303C510.397,-188.017 510.397,-197.288 510.397,-205.888"/>
<polygon fill="black" stroke="black" points="506.897,-205.896 510.397,-215.896 513.897,-205.896 506.897,-205.896"/>
</g>
<!-- gem -->
<g id="node23" class="node"><title>gem</title>
<ellipse fill="none" stroke="black" cx="510.397" cy="-306" rx="27" ry="18"/>
<text text-anchor="middle" x="510.397" y="-302.3" font-family="Times New Roman,serif" font-size="14.00">gem</text>
</g>
<!-- gem&#45;&gt;artifact -->
<g id="edge20" class="edge"><title>gem&#45;&gt;artifact</title>
<path fill="none" stroke="black" d="M489.146,-317.22C484.316,-319.492 479.194,-321.86 474.397,-324 444.55,-337.317 410.351,-351.644 385.121,-362.041"/>
<polygon fill="black" stroke="black" points="383.498,-358.924 375.578,-365.962 386.158,-365.399 383.498,-358.924"/>
</g>
<!-- fabric -->
<g id="node24" class="node"><title>fabric</title>
<ellipse fill="none" stroke="black" cx="587.397" cy="-306" rx="31.6951" ry="18"/>
<text text-anchor="middle" x="587.397" y="-302.3" font-family="Times New Roman,serif" font-size="14.00">fabric</text>
</g>
<!-- fabric&#45;&gt;artifact -->
<g id="edge23" class="edge"><title>fabric&#45;&gt;artifact</title>
<path fill="none" stroke="black" d="M562.922,-317.905C557.539,-320.09 551.824,-322.249 546.397,-324 479.914,-345.448 460.213,-339.613 393.397,-360 390.791,-360.795 388.118,-361.664 385.438,-362.574"/>
<polygon fill="black" stroke="black" points="384.057,-359.35 375.807,-365.997 386.402,-365.946 384.057,-359.35"/>
</g>
<!-- toolshed -->
<g id="node25" class="node"><title>toolshed</title>
<ellipse fill="none" stroke="black" cx="208.397" cy="-234" rx="42.4939" ry="18"/>
<text text-anchor="middle" x="208.397" y="-230.3" font-family="Times New Roman,serif" font-size="14.00">toolshed</text>
</g>
<!-- toolshed&#45;&gt;structure -->
<g id="edge24" class="edge"><title>toolshed&#45;&gt;structure</title>
<path fill="none" stroke="black" d="M207.902,-252.303C207.682,-260.017 207.417,-269.288 207.171,-277.888"/>
<polygon fill="black" stroke="black" points="203.673,-277.8 206.885,-287.896 210.67,-278 203.673,-277.8"/>
</g>
<!-- shears -->
<g id="node26" class="node"><title>shears</title>
<ellipse fill="none" stroke="black" cx="269.397" cy="-18" rx="33.5952" ry="18"/>
<text text-anchor="middle" x="269.397" y="-14.3" font-family="Times New Roman,serif" font-size="14.00">shears</text>
</g>
<!-- shears&#45;&gt;scissors -->
<g id="edge25" class="edge"><title>shears&#45;&gt;scissors</title>
<path fill="none" stroke="black" d="M269.397,-36.3034C269.397,-44.0173 269.397,-53.2875 269.397,-61.8876"/>
<polygon fill="black" stroke="black" points="265.897,-61.8956 269.397,-71.8957 272.897,-61.8957 265.897,-61.8956"/>
</g>
<!-- stick -->
<g id="node27" class="node"><title>stick</title>
<ellipse fill="none" stroke="black" cx="437.397" cy="-162" rx="27.8951" ry="18"/>
<text text-anchor="middle" x="437.397" y="-158.3" font-family="Times New Roman,serif" font-size="14.00">stick</text>
</g>
<!-- stick&#45;&gt;implement -->
<g id="edge28" class="edge"><title>stick&#45;&gt;implement</title>
<path fill="none" stroke="black" d="M429.279,-179.235C425.202,-187.389 420.161,-197.471 415.55,-206.693"/>
<polygon fill="black" stroke="black" points="412.3,-205.367 410.959,-215.876 418.561,-208.497 412.3,-205.367"/>
</g>
<!-- bridge -->
<g id="node28" class="node"><title>bridge</title>
<ellipse fill="none" stroke="black" cx="302.397" cy="-234" rx="33.5952" ry="18"/>
<text text-anchor="middle" x="302.397" y="-230.3" font-family="Times New Roman,serif" font-size="14.00">bridge</text>
</g>
<!-- bridge&#45;&gt;structure -->
<g id="edge30" class="edge"><title>bridge&#45;&gt;structure</title>
<path fill="none" stroke="black" d="M282.97,-249.166C269.194,-259.21 250.481,-272.855 235.003,-284.141"/>
<polygon fill="black" stroke="black" points="232.807,-281.411 226.789,-290.131 236.931,-287.067 232.807,-281.411"/>
</g>
<!-- lumber -->
<g id="node29" class="node"><title>lumber</title>
<ellipse fill="none" stroke="black" cx="709.397" cy="-234" rx="35.9954" ry="18"/>
<text text-anchor="middle" x="709.397" y="-230.3" font-family="Times New Roman,serif" font-size="14.00">lumber</text>
</g>
<!-- lumber&#45;&gt;building_material -->
<g id="edge31" class="edge"><title>lumber&#45;&gt;building_material</title>
<path fill="none" stroke="black" d="M709.397,-252.303C709.397,-260.017 709.397,-269.288 709.397,-277.888"/>
<polygon fill="black" stroke="black" points="705.897,-277.896 709.397,-287.896 712.897,-277.896 705.897,-277.896"/>
</g>
<!-- gold -->
<g id="node30" class="node"><title>gold</title>
<ellipse fill="none" stroke="black" cx="526.397" cy="-450" rx="27" ry="18"/>
<text text-anchor="middle" x="526.397" y="-446.3" font-family="Times New Roman,serif" font-size="14.00">gold</text>
</g>
<!-- gold&#45;&gt;relation -->
<g id="edge32" class="edge"><title>gold&#45;&gt;relation</title>
<path fill="none" stroke="black" d="M510.394,-464.83C499.016,-474.663 483.506,-488.066 470.491,-499.314"/>
<polygon fill="black" stroke="black" points="468.046,-496.8 462.769,-505.987 472.623,-502.097 468.046,-496.8"/>
</g>
<!-- wood -->
<g id="node31" class="node"><title>wood</title>
<ellipse fill="none" stroke="black" cx="434.397" cy="-378" rx="31.6951" ry="18"/>
<text text-anchor="middle" x="434.397" y="-374.3" font-family="Times New Roman,serif" font-size="14.00">wood</text>
</g>
<!-- wood&#45;&gt;substance -->
<g id="edge33" class="edge"><title>wood&#45;&gt;substance</title>
<path fill="none" stroke="black" d="M434.397,-396.303C434.397,-404.017 434.397,-413.288 434.397,-421.888"/>
<polygon fill="black" stroke="black" points="430.897,-421.896 434.397,-431.896 437.897,-421.896 430.897,-421.896"/>
</g>
<!-- worker -->
<g id="node32" class="node"><title>worker</title>
<ellipse fill="none" stroke="black" cx="36.3968" cy="-234" rx="36.2938" ry="18"/>
<text text-anchor="middle" x="36.3968" y="-230.3" font-family="Times New Roman,serif" font-size="14.00">worker</text>
</g>
<!-- worker&#45;&gt;person -->
<g id="edge34" class="edge"><title>worker&#45;&gt;person</title>
<path fill="none" stroke="black" d="M42.2065,-251.945C44.9481,-259.941 48.2834,-269.669 51.3455,-278.6"/>
<polygon fill="black" stroke="black" points="48.0864,-279.887 54.6405,-288.211 54.708,-277.616 48.0864,-279.887"/>
</g>
<!-- board -->
<g id="node33" class="node"><title>board</title>
<ellipse fill="none" stroke="black" cx="709.397" cy="-162" rx="32.4942" ry="18"/>
<text text-anchor="middle" x="709.397" y="-158.3" font-family="Times New Roman,serif" font-size="14.00">board</text>
</g>
<!-- board&#45;&gt;lumber -->
<g id="edge36" class="edge"><title>board&#45;&gt;lumber</title>
<path fill="none" stroke="black" d="M709.397,-180.303C709.397,-188.017 709.397,-197.288 709.397,-205.888"/>
<polygon fill="black" stroke="black" points="705.897,-205.896 709.397,-215.896 712.897,-205.896 705.897,-205.896"/>
</g>
<!-- ax -->
<g id="node34" class="node"><title>ax</title>
<ellipse fill="none" stroke="black" cx="354.397" cy="-90" rx="27" ry="18"/>
<text text-anchor="middle" x="354.397" y="-86.3" font-family="Times New Roman,serif" font-size="14.00">ax</text>
</g>
<!-- ax&#45;&gt;edge_tool -->
<g id="edge37" class="edge"><title>ax&#45;&gt;edge_tool</title>
<path fill="none" stroke="black" d="M351.976,-107.945C350.875,-115.654 349.543,-124.973 348.306,-133.636"/>
<polygon fill="black" stroke="black" points="344.814,-133.33 346.865,-143.725 351.744,-134.32 344.814,-133.33"/>
</g>
</g>
</svg>
